<svg xmlns="http://www.w3.org/2000/svg" width="600" height="600" viewBox="550 550 700 700"><path fill="#12486B" d="M1250 900a350 350 0 1 1-700 0 350 350 0 0 1 700 0z"/><path fill="#F5FCCD" d="m819 588 10-2 5-3 6-1-1-1h-4l1-1 5-1 3 1v-1l10-3 1-1 8 2 6-1 6-1 8 1h-2l4 1h2l3-2v1h-1l-2 1 5-1-5 1 11 1v-1l4-1h-2l1-1-1-1 4 1v-1l4 1h4l2 1 4-2 4 3h-3l2 1h-2l1 2h4l2 2 4-2 5 2 2 1h-1l4 2h5l-1 2h2v1l2 1 2-1-2-1 8 2h3l-5 1-14-1v2l-1-1-1 1 1 3 6 1-2 1 3 2-4-1 2 2h5l2-1 3 2v-2l1 1 5 2h-2l3 2h2l-2-1 11 4h2v1l4-2 7 6 6-1 1-4 9-1-1 2h-4 3-7l2 2-1 3 2 1 1-1 2 3 3-3v2l-7 2h3l6 2 3-2 8 1-3-3 1-2h2l4 1v-2 2l-6 1 3 2h6l10 4v5l-3-4-10-3-2 1-10-1-3 1-7-1v1l1 3 8 1 4 2 8 1-1-2 3-1 5 2-4 3v-1l-2 7 2 1 4-1 1 2 2 1h-3l3 3v3l3 1v2l-4-1-1-2v1l4 4-1-1 4 7h1v1l4 2v3h-3l-2-3-2-1-4 4 3-1 13 6-4 1 3 4 2 3 6 1-3 3 1 1-1-1-3 1 2 2 4-1 2 2-6 2-5-1-2-3-3 2-1-1h-5l10-8-4-6h-7l-8 3-1 3 2 2-3-2-1 1-2-1 1-1-2 1 2 2h-3l1 2h-3l1-2-1-2-4 1 2 3-3-3-1 1 3 3v1l-3-2 3 4-3-3-2 1 4 4-3 2 3 1h-2l2 4-3-3 2 3-2-2v2l3 1-3 1 4 3-1 2 2-1-2 2 3 2-3-1v1h2l-1 1h3l-1 3h2l-2 3h2l1 3 1-2-1 3 2 1h-1l2 4 1-2-1 4 1-2v3h2l-1 1h-1l1 6 2-1-1-4 3 4-2 2-1-1-2 2 3 2-2 1h2l-4 1h4l-4 3 4 1-2-1 1 1-2 1h2l-3 1 1 1 3-2-3 2 1 2 2-1-2 2 2-1v2l2-2v-2l2 1-1-2 2 1v2h-2l-3 2h2l-1 2h1l1-1v2l1 1v-2l1 3 1-5v7l2 1 1-3v3l2-1v2h-2l2 2 5 1 2-2-1-7 2-1-3-5 7 7 1-1 2 2-1-2 2 3 7 3v2l4 4 3-3-2-4 3-2-5-8-5-3 1-1h-2l2-3-2-2 3 2-1-4-2 1v-3l-5-2-2 1-10-10h2l-1-8-2-4-5-2 1-1-2-2h1l-1-2 2-2 6 1 5 15 7 4 4 4h3v-2l3 3 2-14 2 2 4-2-2 5 2 1-4 3-1 6 5 3 1-1 5 4v3l-5-2-1 3 4 6 7 6-1 1-2-4 1 3v2l1 2 1-2v4l-1-2v3h-4l-3 9 1 3-6-1-3 6-1-3-2 2-4-1-3-4v-6h-3l-3-6-1 7 8 11v-1l2 1v2l6 2h-4l1 3-2-1-2 2 2 1-4 2v3l3 1-1 3-4-3 2 7h2l-2 3 3-1-6 7 2 4-2 7-8 1 5 5-3 3-3-2-4 5h2l-1 1 2 2 7-1 5 4h3l1 4h1l4 13-20 8h-3l-4 6 4 3 4 13-1 9 2-2v4l3-1h-1l2 9 8-6 8 6 3-7 9-4 1-6 3-2-1-4 1-4-2-1-2-4 1-9 5-9-3-5v-3l1-3 9-1 3-13h6l7 6 20 1 6 4 1 6 1-1-1-6 1-2-5-2-1-4 3-2 3 1-1-2h-11l-1-3-4 3-8-5-5-1-5-5 2-5 5 4v-4l9 6 3-2 4 1-2 1 6-2 4 1 4 8 8 3 1-1v2l2 1 6-5v2l-5 3 1 2 5 4v-2l3 2-1-3h2l-4-4 2-1-3-1 1-2h2l-1-2-6 1v-3l-1-1h1l-6-4v-2l5 1-2-2 2-1-3-1 2-5 4-2 1 4-1-8 3-4-8-3v1l-3-8-5-7 1 1 1-3-4-4 1 1-1-2 1 2-1-4h-2 2l-2-3v-4h3l-2 2h1l1 1 3-4 1 1v5l1-2 4 3 1-1-1-11-1 3-4-2 4 2v1l-3-1-2-4 2 2-2-4v-11l2 4v2h3-1l3 5v4l14-4 4 2 2 3 1 5-2 6-3 4h-5l-2 5 1 10-4 6 2 1 1-1-1 3 1 1-4 6 1 4 1 2 1-3 3 5h2l-1 2-2-1 1 2 3-1 1 2h3v2l2-3-1 4 1-4h5l1-2-2-4 1-2 5-1 1-4-1-5 2-1v-4l4 7 4 4 8 20-3 8-1-2-2 3-1 10-6 3-4 5-2-1-4 4-2-2-4 3-2 8 3 7-1 6h-5l-7 3-4-3-7 2-3 3-9 1-2-2 1-8-5-3-1-7-1 4-4-2-4 7-6 2-2 5-6 2-9 8-3 6-3 2-2 6-4 1-1-1-7 4-4-2-2 1v12l-8 13-1 7 3 8-1 5-5 8-6 4-2 9-4 4v9l-4 7 1-2-5 15v5l1-2 5 4-2 6 4 8-1 12-5 7 6 3 1 3 5-2-4 2h-2v4l3-1-3 2 4-1-2 2h3v2l5-3-3 2h3l-3 2 2 1 1-1v2l2-2 2 4 5 1-1 2h2l1 4 2-1-2 2 4 1v2l7 1 14 5h7l6-6 11-6 10-3 15-15 11-9-2 3 5-3 3 1 1-2-1 2h2l-2 1h1l1-1-1 2 3 3 3-2v-2l1 1-1-1 1 1v-2h2l3-3v-2l2 2 1-3 1 3 2-2 1 1-1 1 2 2-3 11 2-1v4h-2 3l-2 2v-1l-1 6-2 1 3 5 8 3 1 4h2l-2 2 3 6-2 4 1 5-1 6-6 8-6 12-2 8 1 8-6 12-4 7-2 2-2 2-3 2 2-1 2-2 9-9 5-6 7-9 13-16 7-10 4-7 7-11-1 1 10-17 4-8 1-3 2-4 4-9 3-6 6-17 3-11 2-6 1-2 1-5 1-4 1-6 1-3v1l1-5-1-1 2-8 1-13 1-5v-1l1-2 2-21 1-18v-17l-4-34-1-4v-3 2l-2-8v1l1 9v23l-3-1v3-5l-1-2-4-2-2 2-1-2v3l-6-10-3 1-5-10h1l-3-3h-4l-2-4v-1l-2-1-11-10-5-2-3-4 5 4h4l-4-10 4 8 1-2 10 6 2 3 3-1 4 4 3 6h4l7 7 3 8 4 8 1-6v-5l-1-15v-5l-2-15-2-5-2-12-1-5-1-4-2-5-1-5-3-6-1-2v-1l-5-12-2-1v4l-1-1-2-3-2-4 7 18v5l1 3-1 1-4-8v2l3 6-3-2-2-4-3 1-5-5v1l-1-2-1-1v-3l-1-2 1-1v-2l6 5 1-3 2-1v-2l-3-10 4 4-2-13-8-18 1 2-1-2 2 3-1-4 1 2-2-3 1 3h1l-3-5 1 3 3 5v-1l-3-6-3-5-1-2 1 3 1 1-1-1 1 2 1 1 3 5 6 12 6 12 3 7-1-3-1-3-3-5 1 1-3-5-1-2-3-6-4-8-4-6-2-4-1-2-2-3-3-5-1-2-8-10-5-7-4-6-4-5-2-1-3-4-2-3 1 2-2-3v1l-1-2 1 1-2-2-2-3 1 2-3-4 1 2-1-1-1-2-2-2 5 5-3-2 2 2-1-2 1 2 1 1 1 1-2-3 5 6 5 6-1-2 1 2-1-1-1-2v1l-2-3-2-2-1-1 1 1-2-3-3-2 3 2-2-1 6 6 4 4-2-2 3 4 3 4 4 5 2 2-1-1 7 10-1-2 3 4 6 9 3 4 1 2-2-3 1 1-4-5-5-7-2-3-2-3 1 2-5-8 1 2-3-5-8-9-4-4-2-4 3 4-2-2 3 4-2-2 2 2-1-1 5 5-1-1-4-4-1-2v1l-1-2-1-1-1-1-1-1-7-8-5-5-1-1-9-8-2-2v-1l-5-4-4-3-3-3-2-2-1-1-2-1-3-2-2-2-2-1h1l-3-2 1 1 3 2 2 2-1-1-5-4 1 1-4-3-2-1-1-1-1-1-1-1-3-2 2 1-2-1-3-2 1 1-1-1-2-2 1 1-3-2v1l-3-2-2-2-3-1-1-2v1l-4-3-2-1-2-1-2-1-3-2 1 1-3-2-3-1h1-1l-1-1-8-4-3-2-2-1-2-1-2-1h-2 2l-4-1 4 1-8-3-2-1 2 1-4-2-1-1-7-2h2-2l-7-3h-1l-1-1h-3l-5-2-1-1h-3l4 1 8 2-3-1 3 1-3-1-5-1-13-4-4-1h1l8 2h-2l5 1-13-4-4-1 4 1 2 1 3 1-1-1 1 1-1-1h-2l4 1h-1l3 1h1l-2-1 3 1h-1l7 2 1 1h2l-4-1h2l-3-1 1 1-2-1-3-1-6-2-5-1-6-2h-3l-11-3-5-1-5-1h-3l-5-1-9-1-20-2-18-1h-12l4 1h-3 15-2 4-1 4l2 1h-11l-14 3h-11l-1 1h-8l-1 1h-9 3l-1-1-11 3h1l3-1v1l-5 3-9 2v-1h-2l-4 2-3 1 2 1-3 1h-2l2-1-2-1 4-2 7-5 4-1 1-1-1-1h-9l-5 1h1l-5 2h2l-6 2h3l-4 1h4l-1 1 5-1-1 3-2 1h-2l-2 1h-2l-1 1-5 2-5 1h1l-4 4-5 4-6 3h10-1l3-1 2-1h1l2-1-9 5v1l3 1-1 1-3-1-4 2-5 1-5 2 1 1h-2l-1 1 3-1-1 1h2l3-1-5 3 3-1-3 1 1 2 7-2 3-2 2-2-5 1 8-1 13-3m-43 639 1 1 5 1 1 1-2-1-2-1 4 2h1l6 2 3 1-3-1h-2 2-2l3 1-1-1 1 1h2l5 2-1-1-5-1-5-2 1 1 5 1-1-1 3 1-4-1h2l2 1h2l-2-1h-2l-3-1-2-2 6 2 5 2-2-2h2l-3-1 6 2 11 2h4l3-1-1-1-4-1 1-1-8-3-1-2 1 2 4 1 8 3 10 1 6-2 1-2 5-2-1-1 4 2-7 2 6-1 5-3 4-2 1-3-2-2 2-1-2-1h3l3-1 6-2h6l5-2 5 1 3-1v1h6v-2l5-1v-1l7-6 1-4 3-2 2-17 1-1 1 1 3-1 19-17 1-5-3-7-2-2h-10l-8-5-9-4h-14l-7-3-8 4v-3l2-1h-3l3-1-2-3-3 2v-3l-2 1 1-1h-2l-2-1v1l-1-2-1 1-5-3-1 1-4-1-3 3 3 1h-2l-2-1-5 4 2-3h-7l9-1 3-5-12-2-3 4v-2l-2 1-1-2-2 2 2-4 9-5h-2l2-3-5-2-3-11-2-1-1 2-3-5-11-7-18-2-6-7-2 2 1-5-3-4-7-5h-3v-5l-4-3-4-1-3-3 6-1-13-3 3 2h-8l-6-5-10-3-1-4-7-4-1-4-2 2 3 1v1l-2-1-8 1 2 7v2h-4l-1-5 3-3-2-6 5-1-2-3-9 3-5-2v1l-3-2-2 1-3 3v3l-7 2v4l-4-9-5-5-3-2-7 1-4-5 1 2-2-1-6-16 6-14v-6l-6-8-13-7-3-3 4-4 3-7-1-1 2-1v4l3-6-1-2 6-6-4-5-9-3-5 7-4 3-3-4-8-3-1-5-2-2v-27l4-9 2-4h2l-2 2 4-4 2-7-1-1 1 1 3-4 3 1v-2l1 2h-1 5l2-3 1 2-1 1 3 1 1-2v2l4 4h2l2 7 2-1v2l1-2 1 2v3h2l-1-4h2l-3-5 8 5 2-2-1 3h-1 5l-2 2 4 1h-1l3 3v4h5l1 2 2 8-2 5 1 1-2 2 1 4h1l-1 7 3 3-1 3 2 1v1l5-9 2-28 6-4v-1 1l11-4 12-2-2-2h2l-1-2 3 2 2-1v-2l-1 2v-2l-3-1 3-1 2 2v-4 6l1-8-4-3 2 2v-4 3l2-2-2-3 2 3 1-1-3-5 1-2 2 6 1-8h4l-4 3 1 6-3 4 6-5 2-9v6l5-3 1-5 4-2 9 2 1-3v3h5l1-2-2 2-1-5 6-7 1 1 1-2 2 1 3-3-1 2 3-1v2l5-2v-2l3 1 10-2-4 3 6 1-3 2-1-3-8 3-1 4 2 3 6-5 3 1v-1l10-1h2l-3-4-6-1-4-5 1-4-2-1 3-3h-3v-2l-4-2 6 2 4-1 1-5-6-2-8 1-15 6 7-3 1-3 11-3 5-4 24 6 6-5 6 1 6-3-2-3h3l-4-1 3 1-1-2 2-3-2-3-3 2 1-3-3-3-10 4 9-4h-4l9-1-3-2h1l-4-1 1-2-2 1 1-1-3 2 3-2h-2l1-1-4 1 3-4-2 1 1-1-4-2 2-1-2-1h2l-2-1h2l-3-2 3 1 2-2-3-3 2-1-2-2 2-1h-4l4-2h-4l3-1v-3h-2l2-1-2-5 1-1-1-1-3 3 1 2h-3l1 2h-3l-1 3 1-3-6 3v-3l-3 2 3-4-5-2 1-1 1 2 2-2-2-1 2-3-3-2 4 1 3-5-2 1-4-3 2-3h-2l-1-6-3 1-5-6-3 1-1 4-4 3 2 1-2 4-8 5 2 6-3 9-7 4h-8l1 4-4 11-3 2-2 3v-3l-2 2-3-2 2-3-1-9 7-11-7-5-4-19-6-1 2-2 5-7-2-2-2 1 2-4 6-6 8-2v-2h6v-2l2 2 3-1v-4h-2l2-1-2-3 1-1 2 8 4-2 3 2 7-3-4-8 2 1 2 6 5-2v-3l4 5 1-4 2 1-1 3 8-3 1-6 3 1v-2l2-1-2-3h2l-4-3-3 5-2-1-7 5h-2l6-8v-3l-6 4 4-6h1l-2-3 3-2 1 1 5-10-8 2v2l-4 2 1 5h-1l-3 1h2l-2 2h-5l-4 4v-3l5-2h-3l2-1v-2l-2-1-2 2 2 1-3 2 2-4-3 1-4-4 2-3-2-2 3-5-6-1 1 2 4 1h-7l-2 3-2 1v-1l-2 2 2-4h2l2-5-3-1-2-5 2-2 2 2 2-3-1-3 3-9-3-2 5-2h-5l7-5-3 1-5-3h6l-5-3-1-2 3-1-3-1-3 2 11-13 6-10 2-2 2 1 1-3 2-1-1-1 2 1 2-1-1-2 1-2h-2 1l1-3-4-2 2-3-1-1-7 3h-3l-3 3h-3l-2 2 2-2 3-1-5 2 3-4 3-1 2-4-5 2 1-1-4 1-6 4h2l-2 1v1l-1 1-1-1-3 2-2-1 2-2-1-1 3-2-5-2-3 1-1 1-4 3 1-2-4 1-1 3-6 2-1-1-1 3-6 3h3l-3 1v2l-2-1-4 1-1-4-2 1 3-3-1-2-1 1 1-1-2 2h2l-2 1v2l-2 1 4 5-1 3 3 1 2-2 1-1 6 5-1 2-1-1-2 2 2-3v-1h-5v2l-3-1v3h2l-1 1 2-1-2 2 2 1 2-2 2 1h-2 1l-2 1 1 2-1-1-1 2v-1 1h-2l-1 2-2 2-2 5-3 3 2 1-2 2-1-1 2-1h-2l-8 9 1 1 3-3-1 2h1l-4 2v2l6-4-6 4-1 2h2-3l-1 2-2 2 1-2-2 2v-1l-5 7h-4l3 1-2 2-5 2h3l3-1-4 2-1 1-1-1-2 2 2-2-2 1-1 3-1-1-3 3h3l-2 1v2-2l-4 5h-2 1l-1 1 2 1h-4l-2 2h1-2l1 2-1-1v2l-1-1v3h-1v1l1 1-2-1v2h1-1v2l2-1-3 1 1 1-2 1-1 2h2l-2 2-1-1 1 2-3 2-1 3-5 5h-3l3-1 1-2-2 1 3-2 1-6-7 7 1 1-4 1 1 2-1-1-14 10-6 7-4 3-6 8-3 5 1 3-2 3 1-3-2 3-6 14-2 2v9l-2 7-8 21-2 12-2 1v3l-1-4-1 9h1v8l-3 6v12l-1 5h2l1-5-1-5 4-13 1-10 2-3 2-13 5-10 1 9-6 13-1 9 1 2-1 3v9l-2 2 1 8-1 2v15l-1 10-2 2v2l-1-1v3l2 15 3 7 1 6 12 23 8 5 8 20 10 12-1-1 5 3v3l-1-1 6 15h-1l1 1-1 5 2 3 2-1-2-3 2 3 5 8-1 3 2 1-1-2 2 5 1-1 4 3 1 3h2l1 4 2 1h2l-2-5 7-1 3 5 2 1-2 2 4 9-2 11 3 3-1 1-3 3-4-1v4l-2-1v3l-5-2v4l-2 1 1 2h-3v6l3 3 2-1 1 2-2 3-5 1 2 7h-1l6 7 5 8 8 16 9 12-1 1 3 4 5 5 20 14 6 6 3 6 2 4-1 5 4 6v8l2 2v1l5 7v4l-1-1 6 5v1l4 1h-1l2 1 2 1h1-1l2 1-1-1 2 1h-2 1l2 1h-1l4 1-2-1 3 2-3-1h2-1l-2-1 1 1-1-1h-1l-1-1h-1l2 1v-1h-2 1-1 2v1l3 1 2 1-2-1 2 1-2-1 3 1 3 1-2-1 1 1-5-2 4 2-2-1h2-1l2 1 2 1-3-1 3 1-3-2 2 2h2l1 1-3-2 2 1 2 1h1-1l3 1-4-1h2-1l3 1h-1l-1-1-2-1v1l3 1-1-1m110-447 2-2 2 2-3-3h4l-2-2 3-1h-3 3l-2-1 3-1-2-1h3l-2-1 2-1-2-3 2 1-3-2 4-1-1-2 2 1-1-2 2 1-1-2h2l-2-2 3 1-1-2-2-1h3l-2-5 2 1 1-3h5v-5l2 1-2 2 2 1v-2 1l4-1-1-2h3l3-7 2-2-2-3 3 2h3v-2l2 1 6-3 7-9-7-1-4 3h-2l3-3-5 1 2-4 2 1 2-2-6-1 2-1-2-1 8 2 3 4 2-2v2l2-1-3-2 1-2h-2l1-2-2 1 1-1-5-2-1 2v-2l-2 1 3-1-2-2-2 2-2-1 4-2h-4l2-1-2-1 2 1 2-1-2-2 3 1v-1h3l-3 1 3 1 3-2v-2h-3l1 2-2-2v-3l4 1 1-1h-4v-2h-3l3-1-4-1 5 1-1-3h-4l3-2-3 1-2-3 6-1-2-3h-4l2-1-2-1-1 2-1-2 1-10-2 2-1-2 3-3-5 1 6-3-1-4-4 1v2h-2l-2 5-1-7-3 4 1-3-7 1 1-1 6-1 2-2h-4v-2l-8 3 2-3 5-1h-8l-1 3-3-2-1 1 3 2v1l-4-2 2 3-2-1v3l-4-4v4l-3-2-1 2 1-4-5 1 1 3-1-2-2-1-1 4-1-1-1 2v-2l-5 2v2h3l-5 4-3-1-7 2 2 5h4l-1 2-4-1 3 2-6-2 3 3h-3l1 2 2 2v-2l2 2 3-1 3 2 4 9-3 2 3-1-2 7 2 3h-2 1l-2 2 2-1-3 2 3 2 2-4v3h3l-3 2h3l-3 1h3-2l2 1h-2l2 4-4-3h-3l3 4h5l-3 5h2l-1 2-1-2v4l-3-2-3 2h6l-2 1 2 2-6-3 3 2-3-1-2 3 6-2-2 1h5l-9 1 5 2h-6l4 2-3 1 2 1-3-1 1 1-2 1 8-3 1 1-8 3h4l-4 1 1 3 4-2 2 1-6 1h2l-2 3 3-1-3 2v2l4-2v-3l3 5-3-2 1 2-4 1h4-4l2 1-2 1 3 1-3 1 3 1-2-1 2 1-1 3 2-2-2 3 3 2-2 2 3-1-2 2 2-1-2 1 2 1h-2 3l-2 1 3 1v3l8-2-4 2 3-1-2 2 2-1v3l2-2-2 3 3-2-1 3m-58-22-3-11 2 3 1-3 4 9 2-7 1 4 1-4-2-3h2v-3l-3 1 1-2-1 1 1-5-3 1 2-4 2 1v-3l2 1 1 3 2-1-2 2 4-1-4 2 3 6 2-6 1 3 1-3 2 1-2-2 3 1v-2h2l-1-3-3 2 1-2-3 1 3-3-2 2 1-1h-3l2-1-1-1 1 1v-3h-2l2-1-2 2v-3l-2 2 2-2-2 1 1-2-1 1v-2h-2l3-1-4-3 3 1v-2h-2 3l-2-2 4 3v-2l-5-2 6 1v-1l-1-3-5 3 4-2-3-1 5-1-2-2-3 1 3-1-6 3 3-3h-2l4-2-5 1 5-2-1-3-4 2 2-3-4 2 2-2-1-1 3-1h-4l4-2-2-3h-3l1 3-2-2v3-5l-4 2 4-3 2-5-6-1v2l-2-1 1 2-2-2-1 5-1-2h-2l1 3-4 3 1-2-6-3-2 3v2h4l-2 3 6 4v-3l1 4v-2l4 4v-3l2-1-1 5h2l-2 1 2 1v2l-4 2 3-1 1 4 1-1-1 8-3 2 1 1-1-1-5 2v4l-6-1-2-3-5 5 7 3 2-2v4l2-2-1 5 2 2h-2v2l11 11m47-103h-5l-1 3-1-3h-3v2l-1-2h-4l1 1h-2l3 1-4 1 5 1-5-1v2l6 1h-5 3l1 1-2 1h2l6-1-4 1 2 1-7-1-1 4v-4l-2-1-3 6-1-1 3 2h-2l-1 1-1-3h-2l-3 2h2v1l2-1-4 4 4-1-5 2-1-5-1 4h-6v1l2-1-1 2 1-1v2l1-1v2l3-1v2l1-2v3l1-2-1 3 4 1 2-2-3-3 2-2 2 3 3-2 2 1v-2l2 1-1-2 3 1-3-4 4 2-2-3 5 2v-2l2 1 2-1-1-1 2 1 1-2v1l7-3h-5l4-1-2-1 3 1 3-1 2-1v-2l-5-1h3l-6-4m167 146 3-4v-1l-4 1 1-1v-6l-3-2-3 2-2-3h-3l2-1-1-2-5-1-7-6-5 2 3-3-2 1 1-2-1-7-7 4 1-7-5 2 2 4-2 1 3 3-1 3 3-1 2 8v-6l2 2h-1l2 6 2 1-1-1 5-3-1 3 3 2 1-2 1 4 2 1-4 3-1 3 2-2 1 2-2 5h7l2-4v5l-4 1-1 9 6-4-1-3 10-6m-205 51 6-5 1 3-3 4 3-2-1 3 2 1 3-6v-1l-2 1 2-4-3 4-2-2 2-1-1-2 4-1h-5l4-5h-4v-2l-4 3 2-3h-4l3-3h-3l1-1-4 3 6-9-1-1h3l-2-2-6 4-3 8h-2v2l-1-1-5 3 4 1-5 2v3l4-1 5 3 5-2-2 3 6-1-6 4h3m-57-179-3 1 4 5 6 1-1 4 4 4 2-3-3 1 2-3v2h4l-1 2 2-2 1-7 9-6 2-3-2-1-8 4 6-6-1-1-2 3v-2l-2 1v-1h3v-3l-3-1 5-2-7-2-5 1v2h-1l2 3-4-3-2 2 2 5-1 4-5-7-3 2v6m180 78 4-4 2-4-2-1h2l-7-4 1-2-1 1-3-1v3h-4l2 3-3-3v3l-3-1v5l-2-4-5-2 2 3-3-1 2 2h-3l2 1-2 1 7-1-2 2h2l-5 2 7 1-2 4 4-1 7 1 3-3m55 56 4-4-5-10 1-4-4-3-3 3 1-2h-2l1 3-2-1-1 3h2v3l-5 1 3 2-1 3h4l-1 5 3-3-4 5h2l-1 2 2-1-1 2 2-1v1l5-4M828 677l1 3h3l-1 2 5 3 1-1 1 3h4l-1-2 3-1-1-3-7-1-1-3-1 1 1-3h-2l2-1v-1l2 2-1-3h1l-3-1 2-2-2-2-3 3 3 1-6 6m-16-21h4l-3 1 3 2-5-2-1 3 6 2 2 3 4-2 1-2-3 1v-1l5-4h-3l-4 4-1-2 4-6h-1l-1 1-2-1 1 1-3-1 1 2-3-2-1 3m34 6v3l-2-1v2l1 2 2-2-1 2 4-3-1 2 5-1 1-1-2-1 4-3-2 1 3-7-4 1v1l-3-1-1 3v-2l-1 1v1l-2 1 3 3-4-1m119 5 3 1-8-7v-3h-6l1 1-5-2 6 4-5-2 2 2h-3v-2l-1 3 8 3-1-3 2 1-1-2 2 1-1 3 2 1 1-3v3h2l-2 1h4m30-34h-3l1-1-6-3-8-6h-4l5 3 1 3 8 6 3-1 3 3 1-2-1 2 2 1 1-2 2 3v-3h-3l1-2-1 1v-1h-2v-1M711 982h5l-7-6v-2l-5-4-10-15-6-5-12-4-3 3-2-1 3 2 7-1 3 2 1 2-2-1 1 2 12 10 2 6 4 3v2l-3 1 12 6m17 18 3-1 10 5 2-2-7-5h3l-3-1-1-3-13-7h-4l4 3-1 2 1 4-8-5-2 1 2 4 10 2 2 5 2-2m146-449h4-6 1l10-1h4-4l-4 1 9-1 2 1h2-2 4v-1h-3l-17 1m-66 133 5-3v-3l5-1-3-4-2 2v-2 3l-3 1v-3l-3 1-3 8 1 1 3-2-2 1 2 1m-11 52 3-1v-2l-3-1 3-2-2-7h-2l2-4-8 8-4 1 3 1-1 4 8-3-1 3 2 3m218-94v-5l-7 2-4-1-3-2-1 2 1 2h2l1 1v-1l5 4 2-1v-2l4 1m-289-17v1h-1l1 2 1-1-1 1h2l2-3-2 1 2-1-3 1 2-2-1-1-2 2m230 26-3 1 1 1h-3l3 1h-4l2 1-1 1 2 1 2-2 1 2 3-2-3-4m-135 19 2 2 3-1 5-5-2 1v-2l-3 3 2-4-3 3-2-1 2 2h-2l-2 2m-28-13 11 2 3-4-2-1 3-4-2-3-3 2-11 1v1l-5 4 3 2h3m-122 52 1 1-2 1-1 6 8-12 2-9-2 2 1 1-2 1v1l-5 8m28-34-1 2 3-2v-2l1 1 4-5-3 2v1h-2l-2 3m-10 6 1 1 1-2 4-1-3-1h3v-3l-5 5-5 6 4-5m214-99-9 1 2 2-1-2-3 1 6 2 1-2 3 2 3-2-2-2m-86 272-1-2-3 3h-1l4-3 1-5-6 5v3l6-1m9-205-2-1-8-1 2 1-2 2h6l-3 1h7v-2m-5 48 1-4 3-3 6-3-2-2-6 1-8 6 3 4 3 1m237 63-1-4-3-2 2 3-2-1-1 2 7 4-2-2M946 606l-3-2-3 2v1h2-2l6 2v-3m-109 56 4-3v-5l-3 1 1 2h-3l1 1v4m-124 1 3-3-2 3 1-1 2-3-5 3 2-1-1 2m98 22h4l1-2 2 2 8-3-5-4-10 7m156-26-4-1v2l3 2 1-2 2 1-2-2M774 775h2v1l2-2-2 1 2-3-4 3m101-49-2-4-3-1-1 3 3 1-2 2 5-1m284 99 3-4v-2l-1 2-6 4 1 2 3-2m-531 221h1l-2-6h-1l2 4h-2l2 2m130 174h1l-3-2h-2l2 1 2 1m-54-545h-2l-1 1h2-2v1l3-2m242-73-6-2-1 3 2-1-2 2 7-2m-2 7-4-1h-2l-1 3h7v-2M709 943l1 1 1-3-1-3 1 3-2 2m395-96 2-4-3-7-4-2-2 4 7 9m-299 4 5-2-8-2 1-3-2 2 4 5M699 989l4 1-2-4-7-3 2 4 3 2m35-385v1l2-1h-2l1-1-1 1m442 198v-5l-1-1-1-4-1 10h3m-399 258v-4h-4l1 2-3 1 6 1m-72-106-1-1 1-1h-1v3l1-1m129-260v2l5 1 1-4-4-3-2 4m193-42-2-3-2 1 2 2h2M814 834l1-1-2-3-7-3 8 7m335-32 1-1-2-1-1 2h2M713 951l-1 3 1-3-2-4 2 4m64-355v1l8-4h-2l-6 3m-67 71-3 2v1l2-1 1-2m44 343 2-2-8-3v3l6 2m298-249 1 2 2-1-2-3-1 2m97 51-3-3-3 1-1 2h7m-148-39 1 1 1-2-1-3-1 4m5-74-1-4 1 2-2-2 2 4M704 951l1-1-1-4-2 3 2 2m225-241h4l-3-3-2 1 1 2m-241-21h1l-2 2 4-4-3 2m-10 266 2 1v-2l-1-2-1 3m317-335h-2l1 1h2l-1-1m-188 51 4-1-1-2h-2l-1 3m82-88h-3l-3 1 7 1-1-2m6-5-1 1 2 1 4-1-5-1m190 279v-3l-1-1-2 4h3m13-24v-5l-4-4v5l4 4M792 692l1 4h3l2-7-6 3m-80-26 4-2 1-3-7 4 2 1m418 177-3-9-8 9 2 2 9-2M758 602l3-1 1-2-4 2v1m-26 7-1 1 2-1 1-2-2 2m93 111-2-2-4 4 3 1 3-3m-34 16-3 1-1 2 7-1-3-2m-15 291 3-1-2-1h-2l1 2m55-373-1-3-2 1v2h3m115-45h-2l2 1h1l-1-1m-107 55 3-1v-3l-3 3v1m403 305v-1 3-2m-223-334-1-1-2 2h2l1-1m41 89v1h1v-2l-1 1M758 604l2-1v-1l-2 1v1m250 175v2l1-1-1-1M832 651l3 2 1-1-4-1m98 55-4-1-1 1h5m281 52-1-1 2 5-1-4m21 108v-2h-1l1 2m-128-62h-1l3 1-2-1m-496 25v2l1-2h-1m398-54-3-1 3 3v-2m53-33 3 4-3-6v2m-54-44-2-2v2h2m-51-33 3 1-5-2 2 1m185 157 1-1-1-1v2m-374 401-1-1h-1l2 1m-46-253 1-1-3 2 2-1m14-336h2-3 1m227 4-3-3h-2l5 3m-261 36-1 1 3-2-2 1m365 55-1-5-2 3 3 2M729 626l1 2 1-2h-2m99-37-4 4 4-2v-2m194 368 2-5-3 3 1 2m-18-266h-1l2 3-1-3m-165 431 2-2h-4l2 2m-10-360 2-1h-2v1m12-182v1l2-1h-2m-89 287 5 1 2-1h-7m72-194 2 4 3-4h-5m-116-6 2-1-5 3 3-2m1-2-3 2 7-5-4 3m102-100 2-1-4 1h2m430 262v-3 5-2m-206 124v-3l-2 5 2-2M804 709v2l2-3-2 1m-4 13 1 1v-3l-1 2m-41 64 3 4v-3l-3-1m-80 111-1-1 3 2-2-1m483-86-1-3v3h1M816 652l2-1h-4l2 1m22-96h1l2-1-2 1h-1m323 477h1l1-3-2 3M933 695h2l-2-2v2m25-64h2l-2-1v1m-283 455 1-1-2-1 1 2m46-106 1-2-3 1 2 1m39 71-2-1 3 1h-1m184-463v-1l-2 1h2m93 358-1-1-1 3 2-2M803 741l1-1-2-1 1 2m192 298h1l-2-2 1 2M893 663l2 2v-2h-2M720 992l-2-1 2 2v-1m243-332-2-2v2h2m-142 49 2-1h-2v1m-28 37 3-1 1-2-4 2v1m-59 290 1 1-2-3 1 2m295-81-2-1v2l2-1M907 551l1 1 2-1h-3m-104 36-2 1 3-2-1 1m28 72 1-2-3 3 2-1m126-30-3-1 1 1h3-1m-194-48-2 1 3-1h-1m77 85-3-1 2 2 1-1m-13 55h-2l2 2v-2m327 333v1l1-2-1 1M929 700h3l-2-1-1 1m-87-31-1-1-1 2 2-1m223 91-2-1v2l2-1M827 564l-2 1 2-1m98 157 4-2-1-2-3 4m3-14h4l-1-1-3 1M755 586l-1 1 2-1h-1m307 154-3-6 1 4 2 2m-370-56-2 2 4-3-2 1m7 277 1 1-1-1m304-266v-2 2m-212-6-1 2 1-2m218 95v-1 1m-401 39-1 4 1-4m360 85h3-3m144-101 1-2-1 2M711 959l2 2-2-2m43-373-1 1 1-1m234 164 2 1-2-1m16-74-1 1 1-1m-49-49-3-1 3 1M601 824l1-1-1 1m356-185v-3 3m-120 480v2-2m-10-351 1 1-1-1m8-17 1 2-1-2m168-64v1-1m-274-73-1 1 1-1m103 143h1-1m254 95h2-2M685 694h-1 1m134 72v-2 2m187-68v2-2m-337 333 1 2-1-2m137-290v-2 2m202 22 2 1-2-1m-179 29 1 1-1-1m66-31 2 1-2-1m-117 279 1-2-1 2m337-233-1 1 1-1m110-31-2-3 2 2v1M955 602h-2 2m100 118-1-2 1 2m-100-88 1-2-1 2m-3-1 1 1-1-1m-72 144 2-1-2 1m128-23v1-1m-154 470v-1 1M657 973h-1 1m-27 73 1 1-1-1m364-432-1-2 1 2m-18-4-2 1 2-1m-301 99-1 2 1-2m459 108-2-1 2 1M660 950h1-1m478-131v-1 1m-91-94h1-1m-57 27-2-1 2 1m19 30 1-1-1 1m-188-70 3-1-3 1m209-90-2-1 1 1h1M652 964l1-1-1 1m-2-82h1-1m84-247v1-1m-24 28 2-1-2 1m31 217 1-2-1 2m35 150 1 2-1-2m-58-63 1 1-1-1m56-376-2 1 2-1m217 163 1 1-1-1m-60-64-2-3 2 3m59 341h2-2m64-267h-1 1m-283 17h2-2m-67-108 2-2-2 2m511 107h-1 1m-600 4v-2 2m390-102-1-2 1 2m96 121 2 2-2-2m-88-92-1-1 1 1m127 94 1-1-1 1m11 6h-2 2M931 697l-1-1 1 1M641 882h3-3m117 338 2 1-2-1m383-397 1-1-1 1M699 677l2-1-2 1m80 359-1-2 1 2M631 898l1-2-1 2m328-188 1-2-1 2m-180 344h-1 1m59 65-1 1 1-1M716 965l-1-5 1 5m516-112h-1 1m-635-1v2-2m554-46-1-2 1 2M807 566h-2 2m194 209h1-1m-242 93h2-2m80-159h2-2M698 959l2 2-2-2m318-233 1-1-1 1m-173 396h-3 3m238-260-1 1 1-1m-51-240v1-1m-301 4 1-1-1 1m289 165 1-3-1 3m-3 163 1 1-1-1m192-123h1-1m12-54v-1 1M726 616h1-1m-51 87-1 1 1-1m70-111-2 2 2-2m-10 300-2 3 2-3m250 138 2-1-2 1M810 747h-1 1m23 374 3 1-3-1m410-157v1-1M672 714l-1 1 1-1m200 424 1-1-1 1m-99-89 1-1-1 1M660 888l1 1-1-1m357-163v2-2m-316-50-1 1 1-1m127-24 2-1-2 1m302 198h1-1m-255 363h2-2m85-578-2-1 2 1M842 837h1-1m-42-117-2 2 2-2m-95-47 2-2-2 2m453 137v-2 2m-3-4-1 1 1-1m-285 407h1-1m1-483h2-2m285 82v1-1M963 653v-1 1m-227-52v1-1m162-21 2 1-2-1m264 235v-1 1m-273-35-2-1 2 1m-128 441 1 1-1-1m70-98 2-2-2 2M708 938l-4-1 4 1m313-143 2-1-2 1m38-36v1-1m-60 274 1-2-1 2M847 734l1-1-1 1m-91 276h2-2M638 885l2-2-2 2m69-215-1 1 1-1m199-86v1-1m248 225v-2 2M911 551l-1 1 1-1m-283 492 2 1-2-1m410-239 1-1-1 1m-33-122-1 1 1-1m-178-20-1 1 1-1m303 93h-1 1M957 904h-2 2m36-287v-1 1m-33 287 1-1h-1v1M748 591l-2 1 2-1m-39 78-2 2 2-2m-49 274 2 1-2-1m54 11 1 4-1-4m-26-264-1 1 1-1m380 69v2-2m-282 287v-2 2m57-491h-1 1m-19 109h2-2m-131 19-1 1 1-1m44 353 1 2-1-2m-96-153 1-1-1 1m94-250h1-1m93 39h-2 2m-141 18 2-2-2 2m41 206 2-1-2 1m233-261v1-1m-88 501h2-2m142-207h2-2m226 48 1-2-1 2M614 789v2-2m292-209 2 1-2-1m-29 146v-2 2m-79-34v1-1m346 105v1-1m-139-97v1-1M701 964v-2 2m349-136h2-2m82-75v1-1M783 573h-1 1M662 891v1-1m184-234 2-2-2 2m-86 356h1-1m197-365v-1 1m-324 402h2-2m609-215v-1 1M672 714l-1 1 1-1m392 40-1-1 1 1m-61-72v-2 2m-176 35-1 2 1-2m171 311 1 2-1-2m-324 59h1-1m-22-126h1v-1l-1 1m117-382v-1 1m-66 357 1 1-1-1m96-253-1 2 1-2m14 18-1-1 1 1m5-26-2-1 2 1m-193 366 2 2-2-2m84-104 1 1-1-1m245-308-1-1 1 1m-276 72v1-1m-78 160 1-1-1 1m238-305h-1 1m-27 289 3-2-3 2m94-96 2-1-2 1m-40 381 1-1-1 1m-23-281-1 1 1-1m-89 19h1-1m-148-13v2-2m181-283-2 1 2-1m316 233h1-1m-269 319 1-1-1 1m179-341 2 1-2-1m40 46 1 1-1-1m0-105-3-1 3 1m-177-8v1-1m-105 302 1 1-1-1m76-335 1-1-1 1m-56-91-1 1 1-1m-67 394-2-1 2 1m463-168 1-2-1 2m-23 292v1-1m-37-242-1 2 1-2m-242-89v-1 1m170-16h2-2m-126-80v-2 2m169 141 1-1-1 1m-264 298-1 1 1-1m-15-372 1 2-1-2m1-84 2-1-2 1m15 455h1-1m-59-348 2-1-2 1m50-63h-2 2m10-49v-1 1m-141 21v1-1m130-29-1-1 1 1M682 970l1 1-1-1m224-396h-2l2 1v-1m145 184 1 1-1-1m93 41v2-2m-88-37v1-1m-183-52-2 1 2-1m-11-29-1-1 1 1m92 225h3-3M825 666l-2-1 2 1m-41 19v1-1m206-73v-1 1m58 168 1-2-1 2m104 44-1-1 1 1M837 673l2-1-2 1M724 972l1 1-1-1m174-219 2 2-2-2m-74-88v-1 1m-45 109-2 1 2-1m181-142-2-1 2 1m-87 101h2-2m-174-53h-1 1m127 32-1 2 1-2m197 34-1-1 1 1M699 933v1-1m131-261 1-1-1 1m60-7-1-1 1 1m-17 52 1-1-1 1m136 39-2-4 2 4m-109-95-1-1 1 1m-1 0-1-1 1 1"/><path fill="#12486B" d="m817 1128-2 1h-5l-3 4 1-5 3 1-5-2h3l-3-1-6 1-5-1-7 3-6-3-12 1-3-2-6 2-1-2h2l-8-5v1l-3-5-4-2-8-2-4 2-6-2-1 2 1 1h-3l-2-3-6-3-2-3-6-2h1-1l3 1 3 1 2 3 6 3 2 3h3l-2-1 2-2 7 2 3-3 11 3 6 7 7 4h4l3 2 5-1 1-1 5 1-4-1-6-9-11-8-15-5 2 1 12 3 12 9 9 10 10 2 4-2 6 1 3-2 7 2 2 1v1h2l9-2-6 1M715 831l-4 5h-4l4-10 6-7-2-1 7-4v3l5-1 4 4 1-3-2-2 1-1-8-4v-3h-3l2-3h-8l-1-1 2-2-4-2 14-2v1l3-2-2 2h1l2-2 4 5-1 5 3 2-4 8 10 10 1 7-3 2-2-2-1-5v4l-5 6-4 1 2-7h-5l4-2 3-5-4-6-4 4 1-2-4 1-5 9m244-269 7 1 2 2 5 1 10 2-11-2-4-1-3-2-10-1-8-2-16-1-2 2 6 3 4-1 4 1 13 2-13-1-4-1h-3l4 2-1 4-10 4-4 1v1-1l4-1 9-4 1-4-8-4-12-2-7-1 3-3h1-1l-1 1-1 2 6 1 10 1-1-1 5-1 14 1 8 2h2l-1-1 3 1m212 170-3-3-1-4-2 2-8-2-5-4 2 2-5-2-5-6v-4l-3-4-3-7 1-4h1l5 5 1-1v5l2 3h1v3l1 1 1-1 4 2 2-3 3 3 4 2-4-3-1-3 4 1 2 4-2 1 4 4h2-1v-2l1 1v1l2 2-1-2h2l7 8 2 7-4 5-5-4-1-3m-122-100 4 3 6-5-6-10-1-6 3-1-1-3 1-4h2l4 1-4-1-2 2v5l-3 1 1 5 7 10h1l4 1 3 2 7 3-7-3-3-2-4-1-8 6-5-3h-6l-6-2-3-2-3-3 3 1v3l3 1 6 2h7m-105-79-11-1h5-5l-16-2h-3 1-17 3l-3 1 3-1h-3 2-3 21l12 1 6 1 8 1m77 46h4l1-2-1 2h-14l1 2-13 1 1 3-2-2 1-1 13-1-1-2h2l-2-2v-1l2-1-1-2 2 2-3 1v2l2 1h8m211 381 1-10 1-4 1-1v-3l1 1v-2l1 2 1-3-1 4-1 5-1 5 1-1-1 3-1 1v4-3l-1 1-1 4v-3m-130-296 2 1 2 1-1-3 3 3 1-1v3-1l-4-1-5-4-2-1h1l-1-1h1l-1-4-2-1h2l-1-1 4 9 1 1m-348-17 4 1 1-1 1 2v-3l-2-2 2-2 6 7-1 1-3-1v3l3 1-6 2v-3l-3 2-3-2 4-1-4-1 1-3m265-89-2-1h6v-1l2 1h-1l1 1-1-1h-6l3 2h2-1l1 1-4-2M736 694v-6 3l4-1 1 2 4-6-2 8 7 1 1 4-3-4h-2l3 1v2l-1-2 1 2-2-2h-10l-2-2h1m408-14 3 4h2l2 4h-2l1 3-4-3-5-4v-2l-3-1 1-1-3-3v-1l-1-3 3 4 2 1 2-1 2 3M817 799v5l2 1h-3l-2-2-3 1 1 2h-1l1-3-2-5-1 2 1-5 2 8h2v-4 3l2 1 1-4m307 244v-2h-4l3-1 1-3-1-1h-1 1l-3 1 3-2h-4l-1-3-4 2 4-2-1-1 6 3v-6l1 15m-68-337-3-1h2l-1-3h-5l-1-2-5-1 8 1h-3l3 2 2-2-2-1 1-1 3 2 1 5 1-1-1 2m-316 364 2-5 4-1h4l4 3 15-1v-6l1 5 2 2h-18l-4-3h-4l-6 6m305-368 3 3-2-2h2l-2-1 1-1 3 6 3 3v-2l2 2h-3l-4-5-2-2-2 1 1-2m171 291-6 1-9 14-3 6v4l-7 17-1 4v-3l6-14 1-15-1 15 2-9 6-11 6-8 6-1M721 757l-1-3 3-2 2 3 2-4-1 2-8 16-4 3 4-5-2-1 3-3-2-1 2-6 1 1h1m29-90 2-2 4-7 3-1 6-6-1-2 3-3 6-2-7 3-1 5-5 5-4 1-4 7-2 2m65 549-15-3-2 3 1 3-4 1 3 3-3-3 4-1-1-3 1-3h3l13 3m263-559-4-1 6 1 1 2h2v-1l1 1h2-4v1l-2-2v1l-2-2m-121-63h2l1 1 1-1-1 1 2 1-3-1-1 2v-2l-4-2-1 1-2-1 6 1m-188 19-7-3h-4l1-2 2-2 3-2 4-1-4 1-3 3-2 1v2h2l8 3m231-44h-1 5l5 1h-1l11 3 2 1 5 2 2 1-5-2-6-2-8-2-9-2m54 120 3-1 7 2 1 3-1 1v-2h-5l-4-1h3l-3-1h4l-1-1h-4M728 843l6 3-1-2 6 1-2 2-11 1-6-5 5-3 1 2-3-1v2h5m367-226 1 1-7-3v1l-1-2 1 1v-1l4 2 1 1-1-2 2 2m29 121v-1l5 4-1 3 2 4-1 3 1-3-3-4 1-3-3-3-11 3 10-3m-79-93h-5l5 4v4l-12-4-3-4 3 4 12 4v-4l-5-4h5m145 62 5 6 2 4 2 3 5 8 1 1-6-9-2-3-2-4-5-6m-64 6 2-1 2 3 4 5v3l-2-2 1-1-3-3h1l-3-4h-2m62 56 1-1 3 4 2-2 1-3 1 1-1-1v3l-3 2-3-4-1 1m-319 438-3-1h-1l1-1-2-1h4l2 2-3-2h-2l4 3m357-207 1-5v9l-1 3h2l-1 6-1 1 1-4-2-2 1-9v1m6 7v-2 1l-1 5-1 5-2 6-1 1 2-5 1-4 2-7m-112-365-3-3-5-7-2-2 3 2 4 7 5 4 4 2h-2l-4-3M754 842l-3 1-1 4h-3l-10-5 4-2 7 4 1-1-2-2 7 1m310-170-7 3-4-1-3-2-2 2 2-2 3 2 4 1 7-3m67 41-9-9-4-3-2-5 2 4 3 3h3v2l7 8m-40-23 4-1-2-5 2-2 3-1-3 1-1 2 1 5-4 1M855 574l5-1 3-3 5-1-5 1h1l-3 2-1 1-5 1m222 120h3l2 3h-5l2-1-4-1 1-2v1h1m-385 74-1 3h2l-2 2 2 2-3-2 2-4-2-2 2 1m56-44 3-2 3 1-3 1-1 1v-1l-3 3 1-3m-31 55-2 4-1-2 1 3-4-2 4-2-1-1h3m58 57-21 6 9-2-9-4-2-6 3 6 8 4 12-4m-41 324 5 5h-1l-1-2-1 1-4-3v-2l2 1m-8-427 3-2-1 2h2l2-4 5-1-5 5h-6m454 232-4 6-4-4 1-2 2 2 1-2 1 2 3-2M693 690l1 2-1 4-1-1 2-3-3-1h2v-1m30 58-2 2h2-3l-1 5-1-5h2l3-2m332 275-10-5-9 3-2 2 2-2 9-3 5 1 5 4M717 752l1 3-6 5 5-6-2-2 1-1 1 1m489 100 2 4-1 5 1 9-1-8 1-4-2-6m-161-94-2-3 3-1-1 2 2 1-2-1v2m-174 441h-2l1-1h-2l1-1 3 2h-1M728 658l-4 3-2-1 4-1v-1 1l2-1m103 473-1-2h5l-2 2 1 1-2-3-1 2m222-535-7-3h1l4 2h1l3 1h-2M629 789l-1 2h1l-1 3v-2l-1-2 2-1m416-52 2 3-2 4-2-3 2-1-2-2 2-1m-324-17-1 3-5 2 2-3v2h2l2-4m375 326v4l2-1-1 2-2-1 1-4M769 820l1 4-3-3-1 1 1-1h-1l3-1m381 193 3 3 9-7-9 7v13-13l-3-3m-11-8 3 1v6l-1-2 1-4-3-1M709 687l-3 4v4-4l-5 4 8-8m-28 72 4 3-2 1 1-1-4-2 1-2v1m47-51 6 1 3 7-5-5-5-1 1-2m39-28-3 2 1-2-1 2 2-2h1m65 551-1-2h4v1l-2-1-1 2m127-642 8 1v-1 1l5 1-13-2m89 118 1 2-1 2 3 2-5-4 2-2m-321 74-3 2-2-1v-4l1 4 4-1m470 250v-4l1-2v2h1l-2 4m10 35 3-7 3-5-2 4-5 8h1M751 702l2 1h-1l-1 3v-4m298-16 3-1-1 1 3 2-5-2m-312 39-4 2-1-1 4-2 1 1m-38 21-1 2-4-2 3 1 2-1m340-59h2-1v2l-1-2m182 339v-2l2-5-1 6-1 1M799 802l2-2-1-2 1 2-2 2m280-181-2-1 3 1 1 2-2-2m-29 88 1 3 2 1-2-1-1-3m-332 17-3 2 2-2-1 1 2-1m456 22 3 2 1 2-4-2v-2m-441 41v3l-4 2v-4l4-1m53 31 1 4-1-2h-3l3-2m-177 97-2-2v2-4l2 4m614 119v-2l-1 2 1-1v1m11-75 1-5v3l-1 2m-419 265 6 1h-3 1l-4-1M691 780l-8 12-1-4h2l7-8m436-139v-1l3 3 2 3-5-5M794 774h-2l1 2-4-2h5m-50-59 3-2-1 1h1l-3 2v-1m347-48-3-4-3-1 4 1 2 4m-377 94-4 9 3-6-1-3h2m166-186 5-3-1-2 1 2-5 3m50 3 4-1-4 1 4 3-4-3M650 772l-1 5v-1l-2 1 3-5m87-34 4-1-3 2-4-1h3m375-90-3-3 2 2v-1l1 2m-50-52 1-1 3 2h-1l-3-1m-5 103h7l2 5-8-2-1-3m173 271v-2l2-8-1 4-1 6m-160-253 3 1-6-2v-2l3 3m26 287 3 1-2 1-1-2M737 680l1-5 4-2-4 2-1 5M633 955l1 5-2-3 1-2m66-30v-2 7-5m117-134-1 2-1-1 2-1m-55-110-1 4-1 1 2-5m21 128-8 5 3-5h5M655 997l3 8-4-4 1-4m137-187-1 1v-2l1 1m5-15 2-1v1h-2m-14-93-1 2-1-1 2-1m-20 14h3l-2 2-1-2m-13 461-2-2v-2l2 4m22-367 1 1-2 1 1-2M653 994v2l-1-2h1m510-260 2-1-1 2-1-1m-431 26 1 2-2-2h1m5-2h-4l3-2 1 2m303-61-2-1 4-1-2 2m-294-14 1-3 1 1-2 2m52 120 4-2-2 3-2-1m427 213-1 4 1-3v-2 1M730 739l-1 3-1-2 2-1m16 86v2l-3-2h3m480 168 1-5v1l-1 4m8-99-1-1 1-2v3M747 709l4-1-1 2-3-1m286-25 2 1h-1l-1-1m-288 37v-2l3-2-3 4m371 269v1l2 1-2-2m-350 79-1 5-1-4 2-1m12-245v2l-2-2h2m445 202-1 2v2l1-3v-1M714 730v2l-1-1 1-1m525 202 1 9-1-3v-6M771 713h-1v-2l1 2m-14 110 1 1h-2l1-1m-1-132-1-2h1v2m34 89v2l-1-1 1-1m-61-58-1 1-3-1h4m-25 162v1l-1-2 1 1m467-127v-6l2 4-1 2h-1m-360 54 1-2 1 3-2-1m256-214-2-2 2 1v1M658 853l-1 1-1-2h2v1m126 363-2-1 4 1h-2m379-433h-2l-1-2 3 2m-111-75-1-2 2 1-1 1m-316-60-4 1 3-1h1m8 53h4l-5 1 1-1m66 392v2h-2l2-2m-35-369-2-1 1-1 1 2m-135 71-3 2-2-1 5-1m152 22-1 6-1-4 2-2m315-191-2-2h2v2m-349 72-2-5 3 1-1 4m241-101 1 1-5-3 4 2M779 703l-3-1-2-3 5 4m-63 83-1 5-1-3 2-2m356-187-1-1 4 2-3-1m-313 92-2-1 1-1 1 2m353-24h2l1 2-3-2M760 823l-2 4v-2l2-2m0-114h4l-5 3 1-3m279-127 4 1-4-1m-278 638 2 1h-1l-2-1h1m25-444v3l-2-1 2-2m7-159 1-1-1 2v-1m-18 93-4-1-2-4 6 5m298-1h2l-1 2-1-2m-332 7 3-1-2 2-1-1M608 903v1l-2-2 2 1m414-219-3 1 2-2 1 1m85-65 2 2-2-2M697 929l-1 3-1-2 2-1m67-121v2h-3l3-2m252-127-1-3 2 2-1 1m-280 7-1-5 2 3-1 2m314 0h2l-1 2-1-2m-56-87 3-1-1 1h-2M758 716v-2l3-1-3 3m66 25-3-2 2-3 1 5m-24 22 2 2-3-2h1m20 29v2l-1-2h1m-116 96v2l-1-1 1-1m320-213 4 2v1l-4-3M798 812l-5 6 1-7 4 1m272-122 1 1-1 1v-2m16-1v-3l5 5-5-2m-287 433 5 1v2l-5-3m432-117-1 1v-1h1M614 839h-1l1-3v3m151-154-3 5-2 1 5-6m-83 118v-4l1-3-1 7m487 245-1 2v-2h1m-321 162h4v1l-4-1m144-614 4 3-2-1-2-2M755 712l2-1 1 1h-3m232-151h-1l4 1-3-1M598 850l1-2-1 3v-1m207-90-4-3 5 1-1 2m-48 459v-1l1 1h-1m10-415 2 1-3 1 1-2m461 176 1-2-1 4v-2m-40-173v-1l2 4-2-3m-166-102-5-2 5 2m-344 323h1-1m423-32 9-7-9 7m-25-381-7-5 7 5m142 429 4-7-4 7m-524-88 1 2-1-2m390 68 13-12-13 12M745 686h2-2m8 4 4 3-4-2v-1m325 345 4-8-4 8m-27-329h2-2M723 896l2-1-2 1m53-104-3 2 3-2m-75-105-4 6 4-6m88 101h5-5m-37 23 1 4-1-4m266-114-7 1 7-1m215 264 2-4-2 4m-42-186 2 2-2-2M739 622v-3 3m53 180v3-3m223-109-5 1 5-1m-276 21 3-1-3 1m-47-19-1-3 1 3m57 23 4-1-4 1m-49 192-2 4 2-4m91-131h4-4m-4 34v3-3m-11-97-3-3 3 3m86 488-2-2 2 2M758 724l2-4-2 4m35 41 2 3-2-3m395 58h1-1m-140-125 3 1-3-1m-363 20-3 1 3-1m363 20v-1l3 6-3-5m-323-30 3-2-3 2m38 19 1-3-1 3m-40 10-1 2 1-2m131 472-2-1 2 1m-89-486h3-3m342 15 2 2-2-2m-387-3h-3 3m335-27-3-2 3 2m-298-33-3 2 3-2m345 113 1-3-1 3m-370-36-4-2 4 2m102 85-6 3 5-3h1M682 727l-5 4 5-4m358 13 2 2-2-2M631 883l1-3-1 3m59-173v-3 3m331 5h7-7m-296-55-4 2 5-2h-1m302 60 3 1-3-1m-299-59-5 4 5-4m113 473v5-5m190-445 1-2-1 2m-323 24v-4 4m40-2h2-2m19 9 3-2-3 2m-37 61-3-1 3 1m320 90 3-1-3 1m-314-83-2-2 2 2m74 23v-2 2m14-108 2 2-2-2m-121-16-3 3 3-3m74 7-1 2 1-2m18 74-2 2 2-2m13 18v2-2m223-51h-1l5 1-4-1M765 843l-4 7 4-7m13-132-1-1 1 1m292-114 1 1-1-1m73 417 6-1-6 1M737 619l-2 2 2-2m503 296v5-5m-74 88-3 5 3-5M692 712l-2 5 2-5m-12 8-4 2 4-2m370-24h-5 5m5 176v2-2m-305-50-1 3 1-3m-30-83h-2 2m-60 131-1 6 1-6m415-56 1-2-1 2m-269-4 1-3-1 3m-74-61h-2 2m338 102-2 2 2-2m-274-67v1-1m247-89v-2 2m-137 458h-2 2m228-424v3-3m-54 72-3-1 3 1m-347-33-2-1 2 1m405-57h3-3m-385 1 2-2-2 2m-7 5 3-1-3 1m337 95-1-3 1 3M754 678l-2 1 2-1m290 15-2-1 2 1m-188 522h1-1M755 698v-3 3m79 533 2-1-2 1M725 880v3-3m364-71v-3 3m-339 10-1 5 1-5m-55-124v-4 4m324 4-3 1 3-1M633 862h1-1m101-243-2 1 2-1m8 3-1-1 1 1m10 77h3-3m294 3-2-1 2 1m-291-16-2-2 2 2m281-2h3-3m118-24-1-2 1 2m23 345h1-1m-10-330v-1 1M688 871l2 3-2-3m359-137 2-1-2 1m-317 4 3 1-3-1m299-49v-2 2m-288 86-2-1 2 1m-6-21h-2 2m430-14h2-2m-420 98h-2 2m456 170 2-4-2 4m-41-216 1 2-1-2m-129-111h2-2M810 782l-1 4 1-4m241-71 2 1-2-1m-12-19-1-2 1 2m99 35 3-2-3 2m-16 78h2-2m-380-35-1-1 1 1M606 882l-1 4 1-4m439-156v3-3m-46-131-6-2 6 2M676 706l-2 1 2-1m47 86h-1 1m399-154 3 2-3-2M767 828l-1 2 1-2m-10-7-2 2 2-2m480 156 1-4-1 4M800 794h2-2m337-67-2 1 2-1m-333 28 2 2-2-2m-29-90-3 1 3-1m-9 46h2-2m35 42-1 2 1-2m246 107v2-2m-324-76h-1 1m19 51-2 2 2-2m-42 47-1 1 1-1m100-78h2-2m286-112 1-2-1 2m-41 12-3-1 3 1m-328 89-1-2 1 2m-15-44-2 4 2-4m8 38h-3 3m82 14h-1 1m221-101-1-1 1 1m-224-17-2-2 2 2m310 317 2-3-2 3M741 781v-1 1m283-73h-3 3m-209 3h-2 2m208 0h3-3m174 312h-1 1M746 613l-2 1 2-1m-5 202-1 2 1-2m8-133 2-1-2 1m353-67 2 1-2-1m129 290h-1 1m-103-139 2 1-2-1m-358-56-1 2 1-2m40 77v3-3M644 970h2-2m152-295-1 2 1-2m-14 555-1-1 1 1m32-443-1 3 1-3m-130-64-4 2 4-2m120 38h-2 2m-8 9 2 2-2-2M623 933v2-2m472 66 3-3-3 3M698 692l-1 3 1-3m353 6-2-1 2 1m-326 77-1 1 1-1m35-88h-1 1m6 124-2 1 2-1m30-12 1 2-1-2m-29-90h1-1m-2-51 2-1-2 1m-96 69 1-3-1 3m86-24h2-2m-63 155v3-3m44-150v2-2m-11 33-1 1 1-1m13-23h-3 3m260-120-4-2 4 2M747 821l-1 1 1-1m346-189h-1 1m94 139 2 2-2-2m-381 13v4-4m-53 374-1-1 1 1m-24-403-1-1 1 1m50 89h1l-1 2v-2m40-41h-1 1m-112-11-1 1 1-1m206 364h-2 2M755 718l-1 2 1-2m334-108 1 1-1-1m10 386-1 2 1-2M740 808h-2l3-1-1 1m0-75-3 1 3-1m72 75 1-2-1 2m-37 1-2 1 2-1m271 53h1-1m-377-3-1-1 1 1m343-70v2-2M729 655l-3 1 3-1m97 473 2 6-2-6M663 888v1-1m-33 60 2 2-2-2m421-244 1 1-1-1M808 819v3-3m-75-123-2-1 2 1m-50 8-2 2 2-2m350 17 1 2-1-2M761 828l-2 1 2-1m250-27v1-1m-271-99h3-3m-1 45h-2 2m451 27h1-1m-59 32 1 2-1-2m-85-107-1-1 1 1m196 254v-1 1m-198-246 2 1-2-1m-325 23h-2 2m-47 6 2-1-2 1m354-19h-3 3m135 63h-1 1m-485-65-2 3 2-3m86-2h2-2m-94 29h-2 2m125 40-1 2 1-2m286 24h-1 1M644 960l1 1-1-1m429-271h2-2m-268 78v2-2m228-79 1-1-1 1m80 300 2 2-2-2M736 795l-3 2 3-2m368-144 2 2-2-2m3-25-1-1 1 1m-305 70-2 2 1-2h1m306 356 1 1-1-1m-62-348v2-2M819 806l3 1-3-1m-52 3-2 1 2-2v1m257-90 2 1-2-1m215 247v-2 2m-364 241-1-1 1 1m209-587-2-1 2 1m-313 96-1-2 1 2m302-111h-1 1m-319 79h-2 2m-21-64-1-1 1 1m14-7-1 2 1-2m16 511-2-2 2 2m286-411 1 2-1-2M900 550h1-1M800 758l-1 2 1-2m-37-98-1 2 1-2m44 105-2 2 2-2m220-87-1 1 1-1m12 51h1-1m-215 87-1-2 1 2m-97 66 1 2-1-2m-110-85-1 3 1-3m148 326-2-1 2 1m260-547h-1 1M674 743l1-1-1 1m391 122 1 1-2-1h1m-328-92-2-1 2 1m-45 86-3 6 3-6m184-197h-4 4M743 817l-2 3 2-3m367 172 3-1-3 1m-79-253 3 2-3-2m-257 79h-2l2-1v1m278-75 1 1-1-1m45 45-1-2 1 2m-343-91h1-1m76 18-2 1 2-1m245 326 2-2-2 2M665 766l-1 1 1-1m50-30-2 1 2-1m65 69-2 2 2-2m220-214-2 1 2-1M720 784v-1 1m304-74-2-1 2 1m115 105h1-1m-367-95-1 1 1-1m342-97 1 1-1-1M719 784l-1-2 1 2m-1-7-1-1 1 1m49-62 2-1-2 1m14 127v2-2m12-19-1 3 1-3m-37-113 2-1-2 1m295-14-1-2 1 2m-248 66-1 1 1-1m254-54v-1 1M834 840l-2 1 2-1m241-32-1 2 1-2M735 650l-2 2 2-2m-19 113h-2 2m36-83h-2 2m-25 11v-1 1m405 53 2 1-2-1m18-74 1 1-1-1m-378 44v-1 1m-17-12 1-1-1 1m293 5 2 1-2-1m-327 83h-2 2m-76-48-1 1 1-1m101-16h1-1m-4 23-1-2 1 2m-104-1-1-1 1 1m107 31v-2 2m2-107 2-1-2 1m-5 28 2-1-2 1m286 27 2 2-2-2m-259-56-1 2 1-2M631 885l-1 1 1-1m529-90v2-2m-134-102-1-1 1 1M761 817l-1 1 1-1m284-125h2-2m-306 35 2-1-2 1m412-36v1-1m-421 85h-2 2m17 73-1 3 1-3m-36 45 1 2-1-2m129-53h3-3m-86-149h-2 2m59 437h2-2m204-419-1-1 1 1m-54 31v2-2m-230-51h-2 2m494 335v-1 1m-77-358 1 2-1-2m-471 58-2 2 2-2m436-31-4-4 4 4m-401 50-1-1 1 1m86 68v-1 2-1m-91-92-1 1 1-1m104 55-2 1 2-2v1m284-160 2 1-2-1M722 747l-1-1 1 1m13-12-1 2 1-2m86 56-1 1 1-1m-70-77h2-2m408 74 1 2-1-2M733 655l-2 1 2-1m21 185-2 1 2-1m-19-93h-2 2m482 281v2-2M784 817l-1 2 1-2m-130-35-2 2 2-2m57-48-1 2 1-2m-3 83-1 2 1-2m32-72h-2 2m13-37v1-1m11 15-1 1 1-1m156-56-2 2 2-2m-160 553-1-1 1 1m370-414 1 2-1-2m-64-94v1-1m-354 13h-2 2m34 124-1 3 1-3m60-79h-2 2m-95-9-1 2 1-2m49-75-2 1 2-1m-65 3h-1 1m59-26 2-2-2 2m-33 79-1 1 1-1m377 267 1-3-1 3M914 550h-2 2m127 190h1-1m-228 64 2 2-2-2m197-31v1-1M697 914v2-2m18-156-1 1 1-1m24-18h-1 1m-3 12-2-1 2 1m413-91 1 1-1-1m-430 70h-1 1m89 60 1 1-1-1m-134-62-2 2 2-2m113-52v-2 2m9 35h-2 2m426 318-1 1 1-1m-197-294 2-1-2 1m18-48v1-1M720 789h-1l1-1v1m292-97-3 1 3-1m24-10 1 1-1-1M610 842l-1 1 1-1m131-121-2 1 2-1m18 112-1 1 1-1m38-119-1-2 1 2m16 101v-2 2m-83-78h-2 2m24-37 2 1-2-1m-16-73-2 1 2-1m19 86 1 1-1-1m-45 107-1 2 1-2m358-182v1-1m13-21-2-1 2 1m-325 602h1-1m368-463 1 1-1-1m-70-9 2 1-2-1m-292-88h1-1m256 43h-2 2m-297 48-1 2 1-2m63 97 1 1-1-1m399-89v2-2m-431-30 1-2-1 2m36-51v1-1m4 170-2 1 2-1m226-127v-2 2m-264 83-1 1 1-1m-38-24v-2 2m124-66h-2 2m-105 77-1-1 1 1m-5-3h-1 1m78 15 1 1-1-1m428 171 1-2-1 2M768 854v1-2 1m258-274h-2 2m-269 638h-1 1m-23-495-1 1 1-1m1 29-2-1 2 1m254-191 1 1-1-1m79 126 2 1-2-1m-349 50-1-1 1 1m-48-1-2 1 2-1m360-45-1-1 1 1m9 47 2 1-2-1m-232 60 1 2-1-2m-46-114-1-1 1 1m341 315-1 1 1-1M773 847l-1 1 1-1m-18 368 1 1-1-1m6-365-2 2 2-2m479 113v-2 2M792 766l-1 1 1-1m177-173v-1l1 1h-1m61 150 1 1-1-1m-349-17-2 1 2-1m88 118-1 1 1-1m-36-95-1-1 1 1m-4 28-2 1 2-1m-2-26-2 1 2-1m48 31 1 1-1-1m313-170-2-1 2 1m-337 546v-1 1M637 758l-1 2 1-2m413-172h-1 1m-280 93h-1 1m-37 68-2 1 2-1m455 300-1 1 1-1M721 747h-1 1m87 28v2-2m246-28v2-2m-16 275-1 1 1-1m198-67v-1 1M739 715l2-1-2 1m-2-95-2 1 2-1m-15 124-1-1 1 1m296-42h-2 2m163 56 1 1-1-1m-155-85 2 1-2-1M723 777h-1 1m66-101v-1 1m201-83v1-1m-250 90v-1 1m33 440h-2 2m291-492-2-2 2 2M738 755h-2 2m24 104-1 1 1-1m259-183 1 2-1-2m-322 16v-1 1m359-6 1 1-1-1m-300 0v2-2m168 0h-2 2m-180 46 1 1-1-1m43 32 1 1-1-1m-74-10-1 1 1-1m-105 93-1 2 1-2m189-133v-1 1m-89 12h-1 1m329 127 1 1-1-1M760 605h-1 1m344 28-1-1 1 1m-82 73h-2 2m50-90-1-1 1 1m-42 104 1 1-1-1m-369 66h-1 1m420-76 1 1-1-1m-354 28h-1 1m101 67-1 2 1-2m-122-7-1 1 1-1m60-138h1-1m17 16-1-1 1 1m-3-74 1-1-1 1m460 303v2-2m-538-96 1 2-1-2m-69-48-1 1 1-1m104 5v-1 1m0-15h-2 2m283-42h-2 2m41 152v1-1M746 736l-2 2 2-2m62 66v2-2m-58-89 2-1-2 1m50 40-1 1 1-1m-156-5-1 1 1-1m138-71v-1 1m251 51h2-2m-34-134h1-1M622 798v2-2m178-41v1l1-1h-1m429 220 1-1-1 1M714 732l-1 1 1-1m111 72h-1 1m-175 27h-1 1m431-201 1 1-2-1h1M834 843l-1 1 1-1m-86-169 1-1-1 1m49 455 1-1-1 1m398-376v1l-1-1h1m-460 8-1-1 1 1m307-67-1-1 1 1M776 807l-2 1 2-1m-57-88-1 1 1-1m43-60h2-2m-23 44 1-1-1 1m7 455v1-1m-16-411-3 1 3-1m9 301 1 1-1-1m64-354-1 1 1-1m223 20 1 1-1-1m-283-40v-1 1m284 0 2 1-2-1m-293 16v-2 2m402 315h2-2M749 677v-2 2m-17 70h-1 1m309-10 1 1-1-1m81 259 1 1-1-1M746 614h-2l2-1v1m10-8v-1 1m43 523v-1 1m441-209v2-2m-117-258 1 2-1-2m-347 406h-2 2m-20 150h1-1m-37-485h-1 1m107 394h2-2m-66-436-1 1 1-1m9 112h-1 1m-44 193 2 1-2-1m-69-230h-1 1m83-20h-2 2m-82 136-1 1 1-1m374-162h1-1m-400 33-1 1 1-1m93-7-1-1 1 1m291-51h-2 2m-326 23-1 2 1-2m-17 36-1 1 1-1m140 20-1 2 1-2m-94 260v2-2m8-248h-2 2m44-77h-2 2m251 6-2-1h2v1m-257 507h-1 1m-29-507v-1 1m383-89 1 1-1-1M743 729h1-1m25 495h-1 1m-27-526h1-1m295 41 2 1-2-1m-297 42-1-1 1 1m16-117 1-1-1 1m114 71 2-1-2 1m-139-5-2 1 2-1m7 30-2-1 2 1m-4 26-1-1 1 1m458 305 1-2-1 2m-150-74-2 2 2-2M810 769h-1 1m-29-65-1 1 1-1m-28-22h-1 1m78 157-2 1 2-1M672 721h1-1m154 405-1 1 1-1m87-458-1 1 1-1m-102 11v1-1m-64-66v1-1m58 195v2-2m423 215-1 1 1-1M819 699h-2 2m-74-2h1-1m427 361h-1 1M773 790h-2 2m46 0-1 2 1-2m-117 29-1 1 1-2v1m346-131h1-1M745 850l-1 1 1-1m-9-149 2-1-2 1m72 81-1 1 1-1m312 211v2-2m-311 224h1-1m202-520h-1 1m-267-83h-1 1m128 142h1-2 1m-91 86 1 1-1-1m60 294h1v1l-1-1m360-413 1 1-1-1m-184-19-1-1 1 1m-208 511h2-2m38 10h1-1m194-489 1 1-1-1m-279 427v1-1m-8-461v1l-1-1h1m18-56h1l-1 1v-1m-53 97-1-1 1 1m426-92 1 1-1-1M618 859l-1-1 1 1m192-93h-2 2m-76-45h-1 1m-38 73-1 1 1-1m43-9v-2 2m-16-36-2 1 2-1m294-41h-2 2m-275-74h-1 1m282 100 1-1-2 1h1m-10-31 1-1-1 1m-288 48h-1 1m272-160h-1 1m36 155 1 1-1-1m-2-4 1 1-1-1m-275 33-2 1 2-1M602 905v1-1m566-215v1-1m-413 5h1-1m-9 145h-2 2m-121-48h1l-1 2v-2m220 333-1 1 1-1m198-423h-1 1m2-115-1-1 1 1m-285 632h-1 1m304-534 1 1-1-1M831 804h1-1m198-73 2 1-2-1m108-56v-1 1M729 784l-1 1 1-1m195-99 2 1-2-1m-163 535 1 1-1-1m14-153h2-2m-83-285v-1 1m470 10 1 1-1-1m-340-87 1 1-1-1m200 19v1-1M738 620l-1 1 1-1m18 597 1 1-1-1m301-630h-1 1M633 766l-1 1 1-1m198-207h-1 1m184 138h-1 1m24 38 2 1-2-1m139 327-1 1 1-1m-408 163-1-1 1 1m59-508 1 1-1-1m-204 94v2-2m443-92 1 2-1-2m90-54h1-1m-124 84 1 1-1-1m-141-83v1-1m-36-91 1-1-1 1m227 235v-2 2m-245-78-1-1 1 1m169-131h1-1m24 150 1 1-1-1"/><path fill="url(#path3517_1_)" d="M1250 900a350 350 0 1 1-700 0 350 350 0 0 1 700 0z"/></svg>