<svg id="744ad2f5-5609-425f-b97c-d14a7a0dc09f" data-name="Capa 1" xmlns="http://www.w3.org/2000/svg" width="180mm" height="180mm" viewBox="0 0 626 626"><title>water-texture (1)</title><path d="M634.3,361.3h4c0,3.1-1.9,5.4-3,8-3.9,7.3-9,13.2-17,16.2a6.3,6.3,0,0,0-3.4,2.8c-.9.6-2,1-2.5,2.2-3.8,4.7-4.2,8.5-1.4,12.1,6.4,8.4,26.1,9.1,33,1A50.3,50.3,0,0,1,661.1,391l6.3-2.5,9.9-2.8c5.2-1.6,10.8-1.7,15.4-5a8,8,0,0,0,3.6-2.2,26.5,26.5,0,0,0,10-17.2h6c3.7,3,9.8,3,12,0h14c.6,3.4,2.4,5.6,6,6v8a2,2,0,0,1-2.2-.8c-4-4.3-8.6-7.3-14.8-7.2s-11.9,1.9-17.1,5.3c-7.1,4.7-13,10.7-19.1,16.6-6.9,3.3-14.6,3.6-21.8,6-11.8.4-24,10.9-20.8,23.1,1.3,5.4,5,9.2,8.8,13,6.8,6.2,15.1,11,20.1,19,2.8,4.4,6.1,5,10.5,3.9l5.3-1.1a3.6,3.6,0,0,0,3.2-.6l2.9-.2,4,.9,10.8,4.1c5.1,2.1,9.6.8,13.4-2.6,7-6.2,10.5-14.1,9.1-23.6s0-16.3,7.7-21.8v8c-2.1,2.2-1.8,4.9-1.7,7.5s.7,6.7.6,10c-.1,10.1-4.2,17.9-13.5,22.6-2.1,1-4.8,1.6-4.4,4.5s3,4.8,6.1,5.1,8.6.2,12.9.3v5c-3.6-1.1-7.3-.8-11-.9a6.8,6.8,0,0,0-4.6-1.1c-3.3-3.2-7.5-4.7-11.6-6.3l-4.8-1.7h0l-1.1-.7-3.8-1.3a19.5,19.5,0,0,0-9.2-1.9c-10.4-1.2-19.3,1.6-26,9.9a11.4,11.4,0,0,0-3,6,1.9,1.9,0,0,0-.2.8l-.6,2.3c.3,8,6.1,13.2,16.9,15,1,1.1,2.3,1.1,3.6,1.1,7.7,3.8,13.4,9.2,16.8,17.5,2.1,5.3,7.1,5.8,12.1,2.7a24.7,24.7,0,0,0,8.1-8.6,37.7,37.7,0,0,1,13.4-13.8,2.8,2.8,0,0,0,2-1.8l3-1.2v3a2.9,2.9,0,0,0-2,1.9c-4.2,2.7-4.2,4.7,0,8.9a1.5,1.5,0,0,0,2,1.2v14c-1.7.3-1.7,1.8-2.2,3-3.2,8.9-8.6,16.1-17,20.9a13.6,13.6,0,0,0-5.8,3.1c-3.7,2.9-6.5,6.4-5.6,11.3s4.3,6.8,8.6,7.8c1.6.9,3.2,1.8,5.1,1.7,5.7,1.1,11.3-.1,16.9-.8v7c-6-1.4-8.8-.2-12.1,5.1a3.2,3.2,0,0,0-1.3,2.9,18.6,18.6,0,0,0-1.9,2.2,34.7,34.7,0,0,1-11.4,15.2c-6.5,5-6,15,.1,20.6a22.3,22.3,0,0,0,9.4,5.2c1.8,1.3,3.9.8,5.8,1.2l11.4,3.6v7a14,14,0,0,0-9.9-6.2l-6.2-1.6c-1.4-.5-3.1-.7-4.1-1.6-6.8-5.6-13.3-3.3-19.8.5l-4.2,2.5c-8.2,6-16.9,8.2-26.7,4.3-8.4-2.3-11.4-.5-12.2,7.1-.1,4.3,1.4,8,5.1,10.1,9.9,5.6,19.6,11.8,31.9,9.8l4.7.4a17.2,17.2,0,0,1,7.4,6.7c1.3,3.3-.2,8.5,3.9,9.5s10.2,2.9,15.3-.1c1.9-1,1.5-2.6,1.2-4.3-.6-5.2,1.5-9.4,5.4-12.6s5.4-3.6,8.2-5.5v6c-8,3.6-10.5,9.6-6.4,15.4,1.6,2.5,2.2,6.1,6.4,5.6v8l-8.9-6c-5-2.2-9.9-3.2-15.1-1-5.3.2-9.1,3.8-13.1,6.5-6.7,4.4-11.4,11-18.1,15.4l-5.7,2c-7.1,1-14.2,2.1-20.9,4.4-14.6,5-20.1,20.9-7.6,32.2,3.7,3.3,7.1,7,11.3,9.7a8,8,0,0,0,3.7,3.1c2.2,2.4,4.7,4.8,6.7,7.4,4.7,6.1,5.9,6.9,13.3,4.7a25.7,25.7,0,0,1,17.5,1.1l7,2.6c3.5,1.4,6.8,1.3,9.9-1a2.3,2.3,0,0,0,2-1.1c8.2-5.9,11.4-14,10.3-23.8s-.2-16.6,7.7-22.2v7c-2.6,4.6-1.8,9.4-1.3,14.2,1.4,11.9-3,21.2-12.6,26.6-2.1,1.1-5.3,1.7-4.6,5s3.6,5.2,7.1,5.1a72.2,72.2,0,0,1,11.4,1.1v3c-4,.7-8,0-12-.1a13.1,13.1,0,0,0-5.7-2.1h-.1l-1.1-.7c-3.3-2.5-7.1-3.9-10.8-5.4a39.4,39.4,0,0,0-9.4-3.5,36.2,36.2,0,0,0-17.6-.7c-7,1.5-13,5.1-16.8,11.5s-2.5,14.9,5.1,18.9c2.9,1.5,6.2,2.3,9.3,3.4l5.8,2.1a28,28,0,0,1,13.8,14.9c2.9,7.1,7.9,7.9,14,3.4a21.2,21.2,0,0,0,6.7-7.3c4.3-8,11.2-12.9,18.8-17.3v4c-4.5.7-6.3,2.8-4.1,7.2,1,1.9,1.5,4.3,4.1,4.8v12c-1.6.8-1.5,2.5-2,3.8-3.5,8.9-8.6,16.4-17.2,21-5.2,2.2-9.9,4.9-10.9,11.1h0a2.9,2.9,0,0,0-.1,4.2c.9,3.4,3.6,5.1,6.4,6.4,7.9,3.5,15.8,3.8,23.8.4v8c-2.4-.5-4.9-2-7.1.7-1.9.3-3.1,1.7-4.2,3.1-2.9,2.9-4.1,6.7-5.6,10.3s-3.7,7-7.3,9.1-7.6,7.9-6.9,13.8a14.4,14.4,0,0,0,10,12.3,2.8,2.8,0,0,0,2.6.8c5.7,3.3,12.2,3.8,18.5,4.9v8a14.1,14.1,0,0,0-8.2-5.9l-12.8-3.3-2-1.8c-4.7-3.2-9.2-1.7-13.7.4-6.9,3.2-13,8-20.2,10.8l-7.7-.4c-2.8-1.8-6.3-1.9-9.5-2.5-5.9-1.2-9.2,1.7-9.1,7.7,0,3.6,1,6.9,4.2,9,1.1.9,2,2.1,3.6,2.1,8.2,5.4,16.7,9.9,27,9,7.2-.6,12.6,2,15.2,9.1.3,1.3.6,2.7.8,4a11.6,11.6,0,0,1,.4,1.8h-6c-.1-2.3.7-4.8-.9-7.1-3.5-5-8.7-4.5-13.5-3.8-6.9,1.1-12.7-1-18.4-4.5-2.4-1.4-4.5-3.4-7.3-4.1a7.9,7.9,0,0,0-4.9-2.4,8.5,8.5,0,0,1-4-8.1c.1-2,.3-4,.2-5.9s-.6-4.3-2.8-4.8-3.7,1.3-4.5,3.2c-2.2,5.7-6.2,9.4-11.8,12-3.8,1.7-4.4,5.1-1.9,8.7s3.5,4.1,4,6.8l-1.2,10h-4c-.1-3.4,4.1-7.4.6-10s-6.6,1.4-9.7,3-9.2,2.6-11.9,7h-17c0-9.5-5.5-15.5-13.2-20-3.7-2.1-7.9-3.2-11.9-1.5a53.7,53.7,0,0,1-20.9,3.7,35.7,35.7,0,0,0-11.2,1.6c-10.3,1.9-14.8,8.1-11.8,16.2h-6c-.7-6.8.6-12.9,6.9-16.9l4.1-2.8c4.6-2.6,5.6-6.6,4.8-11.5-1.7-10.6-4.8-13.5-16.6-16l-6-1.9c-7.7-5.3-13.5-4.8-22.6,2.1-1.6.9-3.5,1.4-4.6,3-6.8,3.3-13.6,5.8-21.1,2.5a14.7,14.7,0,0,0-2.9-.5c-2.7-.6-5.3-2-8,0-5,2.2-4.4,6.5-3.4,10.4s5.6,7.9,10.3,9.8l7,2.9c4.6,3.6,9.9,4,15.5,4,12.5-.2,15.8,2.7,17.6,14.9h-5c-1-9.3-3.7-11.6-13.1-11.1a25.8,25.8,0,0,0-3.9.4c-6.7.5-12.4-1.9-17.9-5.3a11.8,11.8,0,0,0-3.2-2.3c-8-3.2-14.1-7.4-11.4-17.6.4-1.6-.3-4.3-2.7-4.9s-3.9,1.5-4.5,3.2c-2.2,6.1-6.6,9.7-12.2,12.4-3.2,1.5-4.6,4.6-2.1,7.3,5.2,5.5,5.2,11.4,3,17.9h-4c.5-1.5,1.1-3.1,1.5-4.7s1.3-3.6-.3-5.1-3.5-.7-5.1.1-5.5,3.1-8.3,4.6-6.3,1.1-6.8,5.1h-19c.2-11.8-11.2-23.4-22.3-22-4.7.6-9.2,2.7-13.7,4l-7.1.2a44.4,44.4,0,0,0-16.6,2.1c-3.6,1.1-7.4,2.4-8.4,6.8-1.8,2.8-2.6,5.8-.9,8.9h-6c0-2.6.1-5.3.1-7.9s1.9-3.4,2.8-5.1c2.4-2.9,5.6-4.6,8.6-6.7s3.7-2.7,4.4-5.1c2.7-8.2-3.2-19.1-11.4-21.3-5-1.3-10-2.3-14.5-5h0c-.3-1-1.2-1-2.1-1a5.7,5.7,0,0,0-5.9-.1c-6.2.8-10.9,4.7-16,7.7s-9.9,5.4-15.9,4.2l-6.2-1.6-2.9-.7c-8.2-1.7-12.5,3.1-10.1,11.1.9,2.8,2.4,5.2,5.1,6.5l4.1,2.7c9,4.3,17.8,8.4,28.3,7.5,6.5-.6,10.6,3.6,12.3,10,.4,1.6.1,3.4,1.3,4.7h-6c-.2-8.7-3.1-12.2-11.8-11s-17.5-1.4-25-6.8a11.3,11.3,0,0,0-3.2-1.3,5.3,5.3,0,0,0-4.6-1.9c-5-3.2-4.9-8.1-4.4-13.2.3-2.6.1-5.9-3-6.5s-3.9,2.4-4.9,4.6l-.3,1c-1.9,3.4-4.2,6.4-8,7.9-6.8,3.4-8.4,6.1-4.9,10.2s4.4,11,2.1,17h-4a45.4,45.4,0,0,0,2.3-6.5c.7-3-1-5-3.8-3.8-6.7,3-13.8,5.4-19.5,10.3h-16c-.6-12.7-11.7-22.8-24-21.9a5.1,5.1,0,0,0-4,1.9,158.3,158.3,0,0,1-20.6,2.3c-4.5.3-9.2.6-13.4,2.7v-7c3.9-3.9,3.9-9.6,0-16v-9c5.9,4.1,6.3,10.1,5.8,16.4-.8,8.9,2,11.4,10.8,9.8,1.3-.3,2.6-.5,3.9-.9,5.2-1.7,7.5-5.2,6.7-10.6-.5-3.2-1.4-6.4-2.1-9.7s1.3-4.4,2-6.6,1.9-2.7,2.7-4.1c5.1-9,3.7-15-4.9-20.9a75.7,75.7,0,0,0-6.7-4.2,20.3,20.3,0,0,1-9.4-10.6c-1.9-5.1-4.3-10-8.8-13.6v-10c1.3.6,2.2-.2,3-1.1,6.6-8.3,15.5-13,25.2-16.6l7.9-2.1c4.5-1.1,9.1-2,13.5-3.5,9.6-3.5,14.8-11.1,16.5-20.8s-2.8-13-11-11.6c-9.9,1.7-17.5-1.9-25.7-6.6s-14.8-7.7-11.8-18.5a4,4,0,0,0-3.1-4.6c-2-.4-3.2,1.5-4.1,3.1s-3.1,5.4-4.6,8.2l-5.8,3.1v-6c4,.5,4.5-2.6,4.9-5.3s-.6-6.8-4.9-7.7v-4l2.9,1.2,6.2,2.7c3.9,1.2,7.2-.6,10.3-2.5s7.4-2.1,11.2.1,6.9,4.1,10.9,4.7c5.8.8,8.2-1.2,8.6-7.3l.8-2.9c.6-6.2-1.5-11.5-5.5-16.1-1.9-2.3-4-4.4-5.9-6.7-4.7-5.4-5-9.2-1.4-15.4,1.4-2.2,3.5-4.1,3.9-6.8l1.1-2.5c3.9-5.3,3.5-11.2,2.4-17.2-.7-3.7-3.4-5.3-7.3-5.4-8.8-.1-15.8,4.1-22.5,9.1a7.6,7.6,0,0,0-3.8,1.9c-4.6,2.3-9.1,4.7-11.9,9.1v-6c3.1-.8,4.5-3.3,5.9-6a4.9,4.9,0,0,0,2-4c3.1-9.4-1.5-16-7.9-22v-7c5.9,4.4,10.2,9.7,11.8,17.2s6.8,10,14.5,6a6.5,6.5,0,0,0,3.7-1.8l15.9-6.4c6-1.1,10.7-3.8,13.9-9.1s3.4-13,1-19.7l-1.6-3.2c-.5-2.1-2-3.8-3.3-5.4-5.6-6.5-13.5-9.1-20-6.7l-4.8,2c-10.4,1.5-21,.5-31.1,4.1v-8c3.8-2.3,3.8-9,0-14v-10c4.4,3,5.9,7.4,5.9,12.4,0,2.5-.3,5-.3,7.5.1,4,2.2,6.8,6.3,6.9a29.3,29.3,0,0,0,9.2-1.7c4.1-1.4,6.6-4.3,5.9-9.1-.7-6.6-2.7-13.2,1.1-19.6,7.4-11.5,6.6-17.2-5.2-24A39.3,39.3,0,0,1,124.3,581c-.3-3.7-2.5-5.8-6-6.7v-11a13.8,13.8,0,0,0,2.8-1.9c7.5-9.3,17.5-14.3,28.6-17.7l4.8-1.2,6.2-1.4c7.6-1.7,14.7-4.3,18.8-11.6,1.2-1.6,2.6-3.1,2.8-5.2,2.9-4.5,3.8-9.6.9-14.1s-7.9-4.4-12.7-3.4c-6.7,1.4-12.5-.7-18-4-2.7-1.6-5.1-4.1-8-5-7.6-2.1-9.8-7.1-9.1-14.3.2-2.3.3-5.2-2.6-5.9s-4.1,2-5,4.1a16.4,16.4,0,0,1-9.5,9.6v-4c4.1-2,5.3-5.6,5-9.8a5.1,5.1,0,0,0-5-5.2v-4a15.3,15.3,0,0,1,3.8,1.2c6,4,11.8,3.2,17.6-.7,2.9-2,5.7-.7,8.4.6s7,4,10.9,4.9,5.7,1.2,7.6-1.9c3.9-4.6,3.1-9.8,1.7-15s-4.1-8.9-7.6-12.5c-8.7-9.1-8.9-11.7-2.1-22,4.1-6.1,6.4-12.7,5.8-20.2s-4.7-10.3-11.8-8.7-12,4.9-17.5,8.2l-4,2.8c-5.1,1.9-9.6,4.7-12.8,9.3v-6c3.1-.8,4.5-3.4,6.2-5.8,4.8-8.8,3.7-15-4.2-24.1-.5-.8-1.1-1.3-2-1.1v-8c2.2,1,3.3,3.5,5.7,4.1,2.1,3.8,4.8,7.1,5.8,11.5,2.4,9.8,6.5,11.7,15.9,7.5,7.3-3.3,14.3-6.9,22.1-9s11.1-6.9,12.4-14.1c1-2.5,1-5.3,1.1-8h12c-1.4,2.9-5.3,3.6-6.1,7-4.5,5.6-7,13-14.2,16.2-5.2,2.3-6.9,6.3-5.9,11.7l.9,4.9c1.3,8.5,2.6,16.8-3.5,24.2-4.6,5.6-4.6,8.8-.8,14.9,2.7,4.3,6.2,8.2,7.4,13.3,1.1,3.5-.9,7.4,1.2,10.8,4.2,2.8,16.1.1,18-4.2a4.1,4.1,0,0,0-.8-5,19.7,19.7,0,0,1-2.3-9.8c1.5-6.7,6.8-10.7,11.2-15.4,9.4-10.4,8.4-15.7-4.1-21.2-5.2-2.3-8.2-6.5-7.4-11a22.7,22.7,0,0,1,5-10.2c4.4-5.3,9.9-9.2,15.5-13.1a8.4,8.4,0,0,0,2.9-3.8c2.6-2.7,5.4-5.3,6-9.3h5c-1.6,5.4-4.6,10.1-7.2,14.9l-1.9,2c-3,2.3-5.7,4.9-9.3,6.4a27.5,27.5,0,0,0-6.3,3.9c-6.8,5.8-6,13.3,1.7,17.7a24.6,24.6,0,0,0,10.9,2.9c2.8.1,5.6.8,8.3-.5a17.1,17.1,0,0,0,10.4-6.2,43.5,43.5,0,0,1,16.9-11.8c7-2.8,14.2-4.5,21.4-6.4l5.3-1.6c5.4-1.1,9-4.8,12.1-9,1-1.7,2.5-3.1,2.7-5.2a7.4,7.4,0,0,0,2-7.1h8c-.1.7,0,1.6.7,1.7a48.3,48.3,0,0,0,14.7,0c.7-.2.7-1,.6-1.7h8c1.3,4,4.6,6,7.9,8.2l6.1,5.9,3.3,6.1.7.9h-.1c.7,10.9,6.5,14.8,14.5,10a2.2,2.2,0,0,0,2.6-1l23.1-8.9c1.6-.4,3-.9,3.9-2.4l1-.8h0c5.3-4.5,6.9-10.3,5.9-16.9v-1.2h14c-2.3,2.1-5.7,3-7.2,6-4.3,8.2-9.8,15.2-17.9,20-4.1,2.7-3,6.4-2.1,10.1l1.6,11a2.6,2.6,0,0,0,.5,3h0v2.8c-1.6,4.7-3.3,9.2-6.7,13.1s-2.3,7.1-.4,10.7a50.4,50.4,0,0,0,4,6.2c3.7,5,6.1,10.2,5.1,16.6-.3,1.8-.3,3.8,2.1,4.4a3.5,3.5,0,0,0,3.1.6c4.4-.6,8.8-1.2,12.1-4.5a3.3,3.3,0,0,0,1.8-3.1c-.3-4.3-3.9-7.5-4.1-11.9l.9-2.1c1.9-6.9,7.8-10.7,12-15.8,8.4-10.1,7.5-14.4-4.4-19.4-8.1-3.3-10.4-9.6-6-17.3,3.6-6.2,8.9-10.7,14.7-14.7,2.3-1.6,4.8-3,6-5.7a3.2,3.2,0,0,0,1.9-2.8,12.9,12.9,0,0,0,5-7.3h4c.2,3-1.6,5.2-2.4,7.8l-2.7,5.2a46,46,0,0,1-15.6,12c-4.5,2.2-8.5,6.1-8,11.7s5.2,8,10.1,9.7c1.1.4,2.2.6,3.3.9s4.2.6,6.3.6c6.9,0,13-1.6,17-7.9l5-4.9c11.1-7.2,23.8-10,36.3-13.2a22.5,22.5,0,0,0,15.9-13.9,11.3,11.3,0,0,0,2.7-6,19.8,19.8,0,0,1,1.1-2h6c4,3.9,8.9,1.5,13.4,2.1,1.8.2,3.7.1,4.6-2.1h6a30.8,30.8,0,0,0,8,8.1l3.8,3c2.6,3.8,5.6,7.1,6.8,11.8,2.6,10.7,6.8,12.6,16.9,8,5.5-2.6,10.9-5.7,16.7-7.6,1-.2,2.1-.1,2.8-1.1,6.6-.5,10.4-4.6,13.1-10.1a14.7,14.7,0,0,0,1.7-6.2c0-1.9.1-3.9.2-5.9h13c-2.9,2.9-6.8,4.7-8.2,8.9l-4,6a24.7,24.7,0,0,1-7,7.4c-2.1,1.4-4.8,2.1-6,4.7-.5.5-1.4,1-1.4,1.3.6,5.3-.8,10.7,1.4,15.9.5,6.8.8,13.6-4,19.4s-5.1,8.7-1.1,15.3c1.5,2.5,3.3,4.7,4.8,7.1s3.7,7,3.3,11.3c-.7,7.3.8,8.5,8.1,6.6,2.5-.7,5.2-1.1,7.4-2.3s4.9-3.1,2.7-6.6c-4.9-8-2.9-15,3.3-21.3,1.7-1.8,3.8-3.3,4.8-5.6,3.8-3.2,6.3-7.1,6.7-12.1.4-3-1.4-4.6-3.6-5.7s-5.4-2.3-8.1-3.4a15.2,15.2,0,0,1-5.8-6c-1.2-5.3.8-9.7,3.8-13.7l3.9-4.8C620.8,377.4,629.8,371.6,634.3,361.3ZM469,449.5h0l1.2,1.8c2.2,2.9,5.2,4.1,8.7,3a31.2,31.2,0,0,1,17.4-.8,10.9,10.9,0,0,0,5.5,1.8c6.5,4,11.8,4,17.2-.9s9.9-13.1,9-22c-1.3-5-.4-10,.3-14.9,2.7-3.6,5.3-7.2,9-9.9,8.2-5.9,10.5-20.4.8-28.2a3.1,3.1,0,0,0-1.7-2.3,26.9,26.9,0,0,0-12-9c-5.2-1.6-10.3-1.8-15.3.8-8.3,2.4-14.3,8.3-20.1,14.1s-13.2,8.8-21.4,10.4-15.6,1.6-21.5,7.8a6.3,6.3,0,0,0-2.9,2.9c-4.3,5.2-5.6,11.2-2.4,17.2,3.9,7.5,10.2,12.8,17.4,17h0c0,.1-.1.2-.1.3a1.4,1.4,0,0,1,.2.6l9.9,9.1h0ZM342.3,784.4l1.1-.9h.2c6.4-3.5,12.4-2.6,18.2,1.5,1.3.9,3.1,1.1,4.6,1.6s.9.5,1.3-.1c2.7,2.3,5.3,1.7,7.3-.7a12.9,12.9,0,0,0,3.1-8.7c.3-10.1-5.4-17-12.6-23h0c-1.1-2-2.1-4-3.2-5.9v-4.9l6.1-10a21.4,21.4,0,0,0,3.7-7.2c.8-3.8,2-7.6.7-11.5a9.5,9.5,0,0,0-3.2-6.5c-4.4-3.1-8.7-1.4-12.9.2-7.1,2.8-13.2,7.6-20.1,10.9-9,4.3-12.3,11-10.9,21.3s-.7,19-7.7,26.7l-4.7,3c-2.5.9-5.6,1.2-5.1,4.8s3.2,4.5,6.1,5a38.5,38.5,0,0,0,6.8.1l6.2,1.1,5.5,2.2a4.6,4.6,0,0,0,4.5,1.8h2a3.1,3.1,0,0,0,3.1-.9Zm-153-5.1-1.9.2c-4.2,1.4-7.6,4.2-11.4,6.5-7.5,5.5-15.5,5.9-24.1,2.8a12.8,12.8,0,0,0-3.9-.7c-6.4-.5-9.7,3-8.5,9.5.6,3.3,1.9,6.6,5,8.2,9,4.8,17.6,10.6,28.7,9.9s14.2,2.5,16.9,12.9c.5,2.1,1.1,3.8,3.6,4s7,.5,10.5.5,5.6-1.5,5.1-5.5a14.9,14.9,0,0,1,2.3-10l.8-1.2h0l5.9-4.1c7.1-4,8.5-7.3,6-14.1a6.2,6.2,0,0,0-.8-4c-2.3-9.1-9.9-9.8-17.2-11l-4.6-1.9c-3.7-3.4-7.8-4.4-12.5-2ZM364.1,472.6l1.2.7c7.4,3.2,11,1.2,12.4-6.5a21.2,21.2,0,0,0-4.1-16.9,85.4,85.4,0,0,0-6.9-7.8c-5.2-5.8-5.6-9.7-1.5-16.1,1.9-3.1,4.3-6,5.4-9.5a6.4,6.4,0,0,0,1.5-4.2,27.4,27.4,0,0,0,.9-3.9c.7-12-2.4-16.6-14.2-13.3s-19,9.6-28,15a6.5,6.5,0,0,0-3.5,5.3,7,7,0,0,0-1.1,4.7v.2c-1.6,3.4-1.2,6.8,0,10.2,1,9.2-2.1,16.9-8,23.8a5.7,5.7,0,0,0-3.9,2.9c-2.7.5-6.1.8-6,4.5s3.4,5.1,6.6,5.5,6.3.2,9.5.3a81.6,81.6,0,0,1,8.1,3.4,11.8,11.8,0,0,0,11.8,0l7.1-3.4h1.9c3.5,2,6.8,4.2,10.8,5.1ZM219.3,843.3l-1-1.4a25.7,25.7,0,0,0-6.6-3.8,16.1,16.1,0,0,0-11.6-1.1c-11,2.5-18.6,10.1-26.2,17.4a28.5,28.5,0,0,1-12.4,7l-7.2,2c-2.1,0-4.2-.4-6.1.8l-5.8,1.3c-11.3,3.1-17.5,12.1-15.7,22.8l.6.9h.1c2.6,7.7,8.7,12.4,15,16.8v.2l.8.8,7.8,6.5,4.2,4.7c3.1,6.1,4.7,7.1,11,5.4a33,33,0,0,1,22.3,1.6c11.1,4.5,16.5,2.4,22.8-7.8l1.8-4.2a23.8,23.8,0,0,0,1.5-14c-1.4-7.5.5-14.2,6.5-19.3,1.7-1.5,3.4-3.1,5-4.8,5.2-5.4,6.5-11.7,4-18.8l-.7-1c-.4-1.6-.8-3.1-2.2-4.1h.1c-2.3-3-4.2-6.5-8.1-8Zm475-28-1-1.2c-1.5-1.2-2.9-2.7-5-2.7l-3-1.1c-2.8-2.7-6-2.5-9.2-1s-8.9,2.4-13.6,3c-2.4.2-5-.3-7.3.9-6.2.1-12.3.7-17.8,3.9s-7.5,9.9-3.2,15.3a37.1,37.1,0,0,0,8.2,8.1c4.5,4.1,7.9,8.7,9.3,14.9,1.8,8.1,6.3,10.2,14.1,7.2a75.1,75.1,0,0,0,7.6-3.6c4.5-2.1,9-4.3,13.9-5.4,7.3-1.6,12.2-5.8,14.2-13.1a23.5,23.5,0,0,0,.1-13.4c-1.4-4.5-3.2-8.9-7.3-11.8Zm-488-387-.9,2.1a34.8,34.8,0,0,1-8.1,8.6c-4.6,3.5-7.3,8.2-5.2,14.3-.1,2.4,1.1,4.2,2.5,5.8,4.1,5,9.8,7,15.9,8.3s10.6,1.6,14.7,5.3l2.9,4.8c0,4.1.1,8.3,0,12.4s1.3,6.8,5.2,7.4a18.5,18.5,0,0,0,12.4-2.3c3.3-2,5.6-5.3,4.2-9.3-2.7-7.6-1.7-14.6,2.5-21.3,2.5-3.7,4.1-7.6,2-12.1-2.6-7.1-9.5-9.4-15.1-13l-3-2a37.2,37.2,0,0,1-6-10.6,30.8,30.8,0,0,0-5.1-9c-3.3-4.1-6.6-4.5-11.1-1.4a3.4,3.4,0,0,0-2.8,2.1,19.7,19.7,0,0,0-5.1,9.9Zm429.9,242c.8-2,1.8-4,.1-5.8s-3.2-.9-4.7.2a8,8,0,0,0-4.5,2.4c-3.4,1.5-7,2.9-10.3,4.7-5.3,2.9-11,5.4-14,11.4a45.6,45.6,0,0,1-9.7,13l-2.9,1.7c-4.2,1.7-7,4.3-5.8,9.4l.6,4.9.9,5.4c.9,7.2,1,14.2-3.9,20.4s-5,8.9-.7,15.7c1.5,2.4,3.3,4.7,4.8,7.1a16.4,16.4,0,0,1,3,9.8c-.2,8.9,1.1,9.9,9.6,7.4,1.4-.5,2.9-.8,4.3-1.4,5.3-2.1,6.4-4.5,3.5-9.5s-2.3-11.4,2-16.5l5.1-6c2-2,4.3-3.8,5.5-6.4,5.4-8.4,4.4-11.8-4.6-15.4l-4.2-1.5a16.4,16.4,0,0,1-5.8-5.9,16.6,16.6,0,0,1,3.8-13.5c3.2-4.1,6.6-8,11.1-10.6,6.9-4,11.1-10.3,14.9-16.9Zm73.1,203h.1c-.2-2.3-1.4-4.4-.9-6.8s1.1-2.9,1.6-4.3c3.8-7.2,10.3-11.7,16.1-17,3.8-.6,5.3-3.8,7.1-6.6a31.2,31.2,0,0,0,7.8-13.5c1.1-4-1-5.7-4.8-4.3a12.4,12.4,0,0,0-3,1.6l-5.1,2.6c-11.9,4.2-21,11.4-26.1,23.2a27,27,0,0,1-7.8,6.1c-5.3,2.3-6.8,6.4-5.6,11.7.4,1.8.6,3.6,1,5.4,2,9.5,1.5,18.4-5.5,25.9-3,6.2-2.2,9.5,4,16.1,1.5,2.6,2.9,5.3,4.3,7.9,2,4.2-.9,9,1.8,13.1,4.3,1.7,14.3-.5,17-3.7a4.5,4.5,0,0,0,.4-5.6c-6.1-8.7-1.8-15.2,4.2-21.6,2.7-2.8,6-5.2,7.5-9.1,1.5-1.8,2.7-3.7,2.7-6.1s-.6-6.1-3.9-7.5-4.6-1.7-6.9-2.6l-5-3.9Zm-293-259c-5.2,2.1-5.5,4-1.1,8.2,1.5,1.2,3.3,1,5,.9,5.1,0,10.3.4,14.5,3.1,6.5,4,12,2.6,17.6-1.2l6-1c3.6,1.8,7,3.9,10.7,5.5,8.4,3.7,12.8.6,13.3-8.7s-4.2-15.4-10.1-21.4-7.2-10.8-1.4-19.2c2.5-3.7,5-7.4,5.7-12,1.2-2,.8-4.1.8-6.2.2-7.9-1.4-10.6-7-11.9-2.1-.1-4.2-.5-6.1.7-11.4,3-20.6,10.1-30.1,16.5-3.3,2.2-4.4,6.5-3.8,10.8,0,1.6-.1,3.2-.1,4.8.2,6.8.5,13.6-2.2,20.1l-2.7,4-5,5Zm-79.4,180-2,3.7c-1.7,2.8-4.3,4.4-7.2,6-6.9,3.7-7.4,5.6-2.7,11.8,2.5,3.4,3.3,6.8,1.9,10.7-.7,1.9-1,3.9-1.5,5.8l-2.1,5c-3.5,6.4-7.6,12.3-14,16.1l-3.1,1.6c-3.3.7-5.5,3-7.5,5.5-3.6,4.6-3.4,8.3.5,12.2l2,1.7c6.8,5.2,14.4,4.9,22.2,3,3.7-.1,6.1-2.4,8.3-4.9a47.8,47.8,0,0,1,20-13.4,202.3,202.3,0,0,1,20.6-5.8c7.1-1.7,12.9-5,16.3-11.8,1.6-1.1,2.2-2.9,2.7-4.7,4.8-10.4,2-16.5-7.9-17.3-1.8-.1-3.6-.4-5.2.6a26.4,26.4,0,0,1-18.2-5,63.5,63.5,0,0,0-9.8-5.6,9.5,9.5,0,0,1-6.2-7c.1-2,.2-4,.4-6s.3-5.9-2.9-6.6S337.7,792,336.9,794.3Zm-111.7-226h0c-5.4,5.5-4,12.3-3.7,18.9l.5,4.9c-.8,5.8-2.4,11.3-5.9,16.1l-5.8,5c-2.8,1.2-7.2,1.2-6.6,5.3s4.4,5.5,8.5,4.7h2.2c5,.9,10.1,1.8,14.6,4.5s6.9,1.8,10.4-.1,6-3.7,9.8-3.1l4.9,2c5,2.7,10.3,7.6,15.9,3.5s3.9-10.8,2.7-16.7a2.6,2.6,0,0,0-.5-.9,9.4,9.4,0,0,0-2.7-5.2c-1.7-3.3-4.3-5.7-6.9-8.3s-5.2-7.5-4.1-12.5c2.7-5.7,8.1-10.1,9.1-16.8,1.3-3.1,1.1-6.5.9-9.7-.4-8.3-4.5-11.2-12.5-9.2-6.5,1.7-12.1,5.2-17.6,8.7-4,2.6-8.6,4.2-12.2,7.5Zm309.2-79.9h0c7.1-4.2,8.5-9.7,3.9-15.1a8.7,8.7,0,0,0-6.2-1.6c-6.7.3-12.5-2.4-18.3-5.4s-12.3-6.5-19.4-7.3-14.5-2-21.3,1.9-10.8,6.7-12.7,13.1c-2.4,8.6,2.5,14.6,13.7,17.6l5.1,1.7c7.7,3.1,14,7.8,17,15.9a4.3,4.3,0,0,0,2,3.2l.8.9c3.5,3.4,6.9,2.7,10.3,0s7.5-7.6,10.4-12.1l1.9-3.6,11.7-8.3ZM338.2,562.3l-.9,1c-4.2,8-3,14.9,4.8,22.2,6,5.7,12.5,10.9,18.8,16.2a9.7,9.7,0,0,0,3.1,3.8c3.5,6.7,6.4,7.5,13.4,4l3.9-.3c6.7-.7,12.7,2,18.8,4.2s13.2.6,17.8-5.6a28.6,28.6,0,0,0,5.3-24.4v-6c1.4-5,4.5-8.8,8.4-12.1,8.3-7.1,10.6-16.1,6.4-24.3-5.5-10.9-18.9-19.1-28.1-17.3l-.8.5-3,.5c-9,2.9-15.8,8.9-22.1,15.6l-2,1.9c-4.4,4.2-10,6-15.9,7.1l-13.9,3.1c-6,1.4-11.4,3.7-14.1,9.9Zm52.9,101.2h0c2.2,7.7,5.5,9.9,11.2,7.6s8.6-6.2,11.3-10.6a36.8,36.8,0,0,1,13.3-13c3.3-1.9,6.5-4.2,8.3-7.7,3.2-6.1.6-11-6.3-11.6-2.1-.2-4.3-.1-6.4-.2l-6.3-1.7c-9.2-4.6-18.1-10.2-28.8-11.3-2.7-1.1-5.5-.6-8.2-.4-7.4.3-13.7,2.8-18.5,8.6-2.9,2.3-4.6,5.2-4.4,9a2.9,2.9,0,0,0-.2.9,3.2,3.2,0,0,0,0,4.3c.8,4.1,3.5,6.6,7.1,8.2,5.6,2.4,11.3,4.5,17,6.8a37.7,37.7,0,0,1,9.6,8.2,14.2,14.2,0,0,1,.5,1.6Zm76.1,277.9c5.2,4.1,9.5,4.1,13-.1a9.9,9.9,0,0,0,1.9-5,23.5,23.5,0,0,0-6.7-20.1l-3.8-4c-6.3-7.5-6.5-10.4-1-18.4,2.6-3.9,5.2-7.7,5.8-12.5,1.5-2.5.9-5.3.9-8-.5-8-2.9-10.4-10-9.9a10.6,10.6,0,0,0-6.2,1.7c-8,2.7-14.7,8.1-22.2,11.9a15.4,15.4,0,0,0-6.8,6.3,10.1,10.1,0,0,0-1.8,5.1c0,7.3-.1,14.7-.1,22-2.2,8.6-7.8,14.1-15.8,17.7-3.1,1.4-2.9,4.1-.2,6.3s4.3,2.2,6.8,2.1c4.6,0,9.5.3,13.4,2.8,7,4.5,13.1,2.6,19.1-1.8l3.8-.3c1.3.7,2.6,1.4,4,2S464.8,941.7,467.2,941.4ZM585.4,783.5a6,6,0,0,0,.8-4.1c1.3-8.1-1.5-14.7-7-20.4-3.1-3.2-6.6-6.1-7.9-10.6-.8-6.7,4.2-10.9,6.9-16.1s5.2-12.7,2.7-19.7a5.7,5.7,0,0,0-2.5-4.3c-4.4-3.2-8.9-1.5-13.2.2-7.9,3.2-15.1,8-22.3,12.6-2.6,1.2-5.1,2.5-5.7,5.7-4.6,4.8-3.2,10.7-2.7,16.1,1.1,13-3,22.7-15.3,28.4-3.5,1.6-3.5,4.6-.5,7a8.3,8.3,0,0,0,5.6,1.9,46.9,46.9,0,0,1,11.8,1.3l5.1,2c3.3,2.8,6.9,2.5,10.7.8l7.2-3.3,2.9-.3,6.1,2.9c2.9,1.7,5.7,3.6,9.2,3.7C581.4,788.9,583.9,787.2,585.4,783.5Zm-57.1,37-7.2,3.6-6.7,3.2c-8,3.6-14.8,8.4-18.6,16.9-1.6,3.6-4.2,7.1-7.9,8.6-8.4,3.4-8.7,9.8-7.3,17.1l.9,4.4a26.1,26.1,0,0,1-2.3,18.6c-6,6.2-6.7,9.9-2.9,15.4a5.6,5.6,0,0,0,1.9,3.1c.4,2.2,2.2,3.6,3.3,5.5,2.1,3.7,3.9,7.4,3.1,11.8-.4,2.3-1,5.2,1.7,6.1,5.5,2.1,10.3-.8,15.1-3.1,2.2-1.1,2.6-3.3,1.9-5.7a3.6,3.6,0,0,0-.4-.9c-3.6-5.3-3.2-10.9-.8-16.6,1.9-.8,3-2.5,4.2-4.1,3.8-3.9,8-7.5,10.3-12.7s1.6-8.9-4.4-11.4c-4.3-1.9-8.6-3.5-11.7-7.2-.3-1.3,0-2.8-1.2-3.8,1.9-10.8,9.4-17.3,17.9-23,3.1-2.1,5.9-4.2,7.2-7.8,2.3-1.5,3.5-4,4.8-6.2s3.1-5.1,3.3-8.2S531.5,819.6,528.3,820.5Zm-146-128.1h0c7-3.3,9.6-15.4,5-23.5a2.4,2.4,0,0,0-.9-2.6c-3.9-9.3-14-16.3-21.6-13.8s-15.8,3.4-23.9,4.2c-4.6.4-9.3.5-13.7,2.4s-6.7,3-7.4,7.3l-1.3,4.1c.7,5.3,4.6,8.2,8.2,11.3,5.8,4.9,10.6,10.2,12.2,18.1s5.8,9.2,12.7,6.5,13.2-5.9,19.8-8.9a16.8,16.8,0,0,0,10.9-4.1Zm307.9-69a14.8,14.8,0,0,0-.1-2.1c1.2-8.5-1.5-15.3-8.8-19.9a15.5,15.5,0,0,0-1.2-2.2c-6.8-6.7-5.1-13.2.2-19.8a29.1,29.1,0,0,0,5.5-13.2c.9-5.2,1.3-10.7-3.1-14.4s-9.7-1.6-14.1.7c-8.1,4.2-15.9,8.8-23.7,13.5-2.5,1.6-4.6,3.9-4.9,7.2-2.7,4.9-1.8,10.1-.7,15.2,0,11.9-4.2,21.3-15.7,26.5-3.6,1.6-3.2,4.1-.7,6.7s4.4,2,6.9,1.9c5.9-.2,11.7.6,16.8,3.7s7.5,2.3,11.1-.1,8.9-3.3,13.6-.6l3.8,2c1.6.7,3.2,1.7,4.8,2.3C686.3,632.8,689.9,630.1,690.2,623.4ZM413.4,783l-1-.8c-6.4-5.2-13-5.2-19.8-1.1l-7.2,4.4-5.2,2.8a16.5,16.5,0,0,1-14.2,1.8,58,58,0,0,0-9.2-2c-5.8-.9-8.7,1.8-8.7,7.7s5.1,11.6,14.2,14.6l5.1,2.7a13.9,13.9,0,0,0,9.9,2.3h2l2,.2c12.3.6,13.5,1.6,17.3,13.4.6,1.8,1.4,3.5,3.6,3.7s6.9.5,10.4.6,5-1.5,4.8-4.9c-.6-7.4,2.7-12.4,9.2-15.9s8.4-6.9,6.6-15.1c-.4-1.7-1.1-3.4-1.7-5.2-4-6.8-10.7-8.5-17.9-9ZM562.1,647.4a6.8,6.8,0,0,0,.6-6.2,32.7,32.7,0,0,1-1.4-9.8c.4-3.2,1.9-6,3.4-8.7,6.2-10.9,5-16.7-5.9-23-8.1-4.5-14.1-10.2-16.7-19.2a26.6,26.6,0,0,0-4.8-7.2c-5.8-4.6-11.7-2.6-15.1,5.1a9.4,9.4,0,0,0-2.3,4.4c-2.5,5.3-5.4,9.9-10.5,13.5-6.7,4.6-6.8,13.7-1.3,19.8a22.7,22.7,0,0,0,15.2,7.5c1.4,1.1,3.2.8,4.8,1,6.8,1.8,12.7,4.4,13.3,12.7-.1,3.4-.1,6.7-.2,10a6.4,6.4,0,0,0,4.3,6.5C550.6,655.7,559.3,652.3,562.1,647.4Zm11.1,285.7c-8.6,5-11.3,13.3-6.8,21.1l3.6,3.3c1.2,1.5,3.1,2,4.8,2.6,11.6,3.6,22.2,8.1,27,21,2,5.3,6.8,5.5,11.7,2.1a29,29,0,0,0,8.1-8.6c1-1.7,2.5-3,2.7-5.1,4-3.3,7.4-7.3,12.2-9.9,2.4-1.3,5.1-2.9,6.8-5.6,3.6-5.8,1.4-12.5-4.7-12.4-8.3.2-15.2-3.1-22.2-6.4a28,28,0,0,0-10-4c-10.1-4.5-20.2-5.8-30.3,0A4.1,4.1,0,0,0,573.2,933.1ZM696.3,690.4h0c6.1-2.6,10.6-12.2,9.9-21-.8-3.8-3.6-5.2-7-5.9a21.6,21.6,0,0,0-8.4,0,20.3,20.3,0,0,1-13.5-2.5c-5.6-2.9-10.6-6.9-16.5-9.2-2.8-1.1-3.5-3.9-3.5-6.7a42.6,42.6,0,0,0,.2-5c-.3-2.4-.5-5.6-3.2-6.1s-4.1,2-4.9,4.2c-1.6,4.8-5.2,7.5-9.4,9.7-5.9,3.1-6.5,5.5-2.3,11,2.5,3.5,3.9,6.8,1.9,11-.5,1-.3,2.3-.4,3.5s-.8,2.4-1.1,3.7a9.2,9.2,0,0,0-1.3,2.1c-3.8,8.7-9.3,15.6-18.4,19.4a15.5,15.5,0,0,0-8.3,8.2c-1.7,3.6-1,6.7,1.6,9.6,6.7,7.3,27,8,32.9-.2,3.7-5.2,9.1-8.6,14.9-11.4,7.6-3.5,15.7-5.5,23.7-7.5,4.2-1.3,8.6-1.9,12.1-4.8C696,692,696.9,691.5,696.3,690.4Zm-10,229c-.4-1.4-1.6-2.2-2.6-3.1a53.2,53.2,0,0,0-3.8-4.5c-4.6-4.6-5.7-9.6-2.5-15.3.7-1.3,1.3-2.6,1.9-3.8,5-4.8,6.7-11,6.9-17.5.3-10.5-5.2-14.3-15-10.8s-18,9.8-27,14.7a6,6,0,0,0-3.2,4.3,6.3,6.3,0,0,0-1.7,3.9,18.6,18.6,0,0,0-.8,9.9c2.2,13.8-1.7,24.5-15.2,30.7-3.2,1.5-3,4.2-.6,6.5s4.3,2.3,6.9,2.2c4.9-.2,9.9.4,14,2.9,5.8,3.5,11,2.9,16.3-.5,3.5-2.2,6.8-1.9,10.3.1a40.9,40.9,0,0,0,10,4.5,6.2,6.2,0,0,0,6.2,0,5.3,5.3,0,0,0,3.6-3.8C691.8,932.5,691.7,925.4,686.3,919.4Zm-40-123.1c-2.7,12.9.8,16.3,13.6,13.1l1.8-.7c1.5-.8,2.9-1.6,3.6-3.2,2.7-2.3,2.7-5.3,1.6-8.2-2.4-6.7-1.5-12.9,2.6-18.8a22.6,22.6,0,0,0,2.2-4.4c2.4-6.1.3-11.9-5.4-15.1a5.6,5.6,0,0,0-3.7-2.7c-8.8-4.6-14-12-17.1-21.1l-.8-1.3c-2-3.2-4-6.7-8.6-6.6s-7.6,3.3-9.6,6.9-4.4,9.4-6.6,14a6.9,6.9,0,0,0-3.6,3.1c-9.5,4.4-10.4,16.9-1.5,23.7,5.7,4.4,12.6,5.7,19.6,6.4l5.7,2.1c2.2,2.3,4.5,4.5,5.3,7.8ZM459.2,650.5c2.4,1.4,4.8,2.9,7.7,3.3,5.7,3.8,11.8,6.3,19,5.6,3.4-.3,6.9-.3,10.2,1.2a14.7,14.7,0,0,1,5,4.9c4.4,11.6,4.4,11.6,16.1,11,3.7-.1,5.7-1.4,5.1-5.4-.9-5.8,2-9.9,6.3-13.2,1.8-1.5,3.8-2.6,5.7-3.9s4.7-4.8,3.8-8.6c.1-1.7.4-3.6-.7-5.2-1.3-4.7-2.5-9.4-8.1-10.8a6.1,6.1,0,0,0-3.9-1.1c-3.6-1.2-7.7-1.7-10.7-3.8-5.9-4.3-11.4-3.2-17.1-.1-3,1.7-6.2,3.1-9,5.2-6.9,5-14.2,5.7-22.1,3.1a31.2,31.2,0,0,0-4.4-.9c-2.8-.7-5.6-1-7.8,1.5C450.4,639.8,452,645.5,459.2,650.5ZM330.5,796.4c3-5.8,1.7-9.9-3.8-11.1a27.1,27.1,0,0,0-9.4-.9c-2.1.2-3.8-.9-5.6-1.8-8.1-3.8-15.8-8.5-24.6-10.4-12.7-2.6-24.5-1.4-33,10.1-1.7,1.7-1.9,4-2.7,6.2-.5,7,1.4,10.9,7.7,13.9,3.5,1.7,7.4,2.7,11,4.1,1.4,1.2,3.2.8,4.7,1.4,3.6,3,7.8,5.4,10.5,9.4a29.9,29.9,0,0,0,1.5,4.2c3.6,7,6.6,8.3,12.5,5.9a33.5,33.5,0,0,0,11.5-13l3.6-4.9,3.9-3.1c2.5-.4,3.9-2.5,6-3.6S329.6,799.7,330.5,796.4Zm-86.3-155c.8,7.3,6.3,9.8,12.1,11.9s13.2,7.2,21.2,6.1c6.4-.9,11.8,1,15.6,6.4.4,1.2.8,2.4,1.1,3.5.4,6.5.9,7,8.8,7.2,10.7.3,10.7.3,10.3-10.2l3-5.9,9.4-6.5a8.2,8.2,0,0,0,3.7-5,17.9,17.9,0,0,0-12-20.7c-5-1.2-10.5-1.9-14.8-4.8s-5.3-2.5-8.4-1.1c-5.9,1.6-10.8,5-15.9,8.2s-11.2,4.7-17.5,2.9l-5.3-1.3a10.7,10.7,0,0,0-8.4,0C243.8,634.5,242.9,637.6,244.2,641.4Zm62.1,205.9c5.5-1.9,8.6-6.2,11.3-10.9a4.3,4.3,0,0,0,1.8-2.9c2.6-2.4,3.7-5.5,4.5-8.7s-1.4-5.9-4.7-4.1c-6.7,3.6-14.1,5.8-20.1,10.6l-1.8,1.1c-3.6,1.2-5.5,4-7.3,7.1-3.1,5.3-6,10.7-11.6,14-8,4.8-8.1,5.3-6.5,14.9,1.2,7.7,2.9,15.4-.6,22.9-1.1,1.6-2.2,3.2-3.2,4.8-3.1,2.6-3.4,5.8-2.1,9.4s3.7,6.9,6.1,10l3,4.9c.2,3.5,1.5,6.9.6,10.6s1.4,4.6,4.5,4.5a24,24,0,0,0,12.4-4,3.1,3.1,0,0,0,1.8-2.8c1.2-1.2.5-2.4,0-3.7-4.3-10.3-3.8-13.1,4-21.1,3.3-3.4,6.8-6.8,9.1-11.1,3.4-6.3,2.2-9.8-4.3-12.7l-7.9-3.1-2.7-2.7c-2.7-6.6-.7-12.3,3.8-17.3,2.3-2.6,4.7-5.1,7.1-7.6A5.4,5.4,0,0,0,306.3,847.3Zm-91-330,1.4,2.1c3.8,5.1,9,8.7,13.5,13.1l1.7,1.9c2.4,4.9,1.4,11.2,6.3,15s9.7.7,14.1-2.1c.8,0,1.6,0,2-.9h0q9.6-4.1,19.5-7.2A15.6,15.6,0,0,0,284,528.5c2.8-9,1-17.3-5.4-24.4-1.7-3.6-5.3-4.9-8.3-6.7a15.5,15.5,0,0,0-13.9-.2c-3.2,1.5-6.9,1.9-10.6,2.2-7.2.7-14.6.4-21.6,2.9l-4.1,1.8C214.6,507.6,213.1,511.7,215.3,517.3ZM405.1,773.6c2.9,3.4,6.8,5,11.1,5.8s11.2,1.9,16.1,5c2.6,2.1,3.8,5,4.8,8.1s0,4.5.1,6.7c-1.6,3.8-.9,7.2,2.2,9.9,5.7,3.1,11,1.1,15.8-1.9s3.9-7.8,2.5-12.1-.6-10,2.1-14.7c1.3-2.2,2.3-4.7,3.5-7.1s.8-6.8-1-10a10.4,10.4,0,0,0-4.7-5c-10.5-5.1-16.9-13.4-21.6-24.1s-13-9.3-18.3.2c-2.5,4.5-4.5,9.3-6.8,13.9l-4.6,3.8C398.5,756.7,397.9,767.2,405.1,773.6ZM363.4,477.1l-1.1-.6a40.1,40.1,0,0,0-4.3-1.2c-7.3-1.1-10.6,2.1-9.8,9.5.6,4.9,4,7.9,8,10s8.7,4,13.1,5.9a4.6,4.6,0,0,0,3.4.9c3.6,2,7.5.8,11.2,1,5.6.3,11.7,1.3,12.9,7.4,1.7,8.7,6.3,11,14.2,9.6.5-.1,1,.3,1.5.3,4.7.4,6.2-1.1,5.2-5.7-.5-2.9.3-5.1,1.7-7.5,2.5-4.5,7.2-6.3,10.7-9.6a2.3,2.3,0,0,0,2-1.9c5.8-8.5-.9-21.9-11.8-23.8l-7.1-1.9c-3.1-1.1-5.2-4.2-8.9-4.1h-2.1c-7.4.2-13.1,4.1-18.3,8.8a7.1,7.1,0,0,0-3.7,1.2c-2-.2-2.9,2.2-4.9,2.1l-11.8-.4ZM276.3,611.3c-.2,2.2-.3,4.3-.5,6.5s1.2,5,4.3,4.7c4.9-.5,9.9-1.2,13.6-5.1,1.6-1.5,2.4-3.1.7-5.1-3.9-6-3.7-11.9.2-17.8,1.3-1.3,2.5-2.7,3.7-4.1a51.3,51.3,0,0,0,5.3-5.1c9.3-11.9,6.9-16.4-4.6-20-7.5-2.4-9.5-8.9-6.2-16,2-4.3,5.7-7.3,8.6-10.9l4.9-4.1c9.5-4.7,14.2-13.2,17.5-22.6,1.3-3.5-1.3-5.7-4.7-3.9-6.1,3-12.5,5.4-18.1,9.3l-4.7,3c-3.3.8-4.7,3.5-6.1,6.1-3.7,6.8-8,13-15.2,16.5-3.4,1.6-4.2,4.5-3.8,7.9.7,5.3,1.5,10.5,2.2,15.7-.4,3.1.2,6.2-1,9.1s-3.5,5.9-5.2,8.9a7.1,7.1,0,0,0-1.2,8.2,27.6,27.6,0,0,0,7.3,11.1Zm-12,332.9c4,.8,7.1-.6,8.2-4.5,1.9-6.9,2-13.8-3.2-19.6l-2.7-4-3-3.2c-6.6-6.8-7-10.3-2.2-18.5l3-4.9c3.9-5,4.5-10.8,4.1-16.8-.5-8.3-4.3-11-12.5-8.6l-1.8.3c-8.4,2.4-15.2,7.8-22.7,12-9.5,5.2-12.9,14.4-9.3,25,0,1.7-1.4,3.2-.7,5s-.1,2-.2,2.9c-.7,2.5-1.4,5-2.2,7.5-3.1,4.1-6.4,7.9-11.2,10.2s-5.9,4.5-.7,8.5c3.9,1.8,8.2.8,12.2,1.7s7.9,3,11.8,4.4c1.8,1,3.5,1.2,5.2,0a9.4,9.4,0,0,0,2.8-1c5.8-4.2,11.5-3.7,17.1.4a5.4,5.4,0,0,0,1.9.7C260,943.2,262.2,943.5,264.3,944.2ZM404.2,674.3l-.9.8c-4.3,1.3-6.9,4.3-9,8s-5.6,11-11.3,13.6-8.1,8.1-6.9,14.6c.4,2,.5,4,1,5.9a25.8,25.8,0,0,1-2.9,20.1c-3,3.1-5.9,6.3-4.1,11.1s4.4,7.8,6.7,11.6,3.2,5.3,3.5,8.6c.8,12.1.9,12.1,12.5,8.1a10.5,10.5,0,0,0,2.3-.8c4.5-2,5.6-4.4,3-8.6s-2.7-10,.3-14.9l10.9-12.6c2.9-3.8,5.9-7.5,3-12.6a5.7,5.7,0,0,0-3-2.9l-2.7-1.1c-12.6-4.8-14.5-12.9-5.6-23a73.7,73.7,0,0,1,11.7-10.6c6.3-3.3,8.8-9.8,12.7-15.1a12.4,12.4,0,0,0,2.7-5.8c.4-1.5.8-3.3-.9-4.5a3.9,3.9,0,0,0-4.3.2C416.8,667.9,410,670.1,404.2,674.3Zm-102-130.1c-8.4,7.1-8,14.2.9,18.8a23.8,23.8,0,0,0,14.1,2.3,14.7,14.7,0,0,0,11.1-2.9c6.6-6.4,13.3-12.6,22-16l1.1-.8h.2a20.7,20.7,0,0,0,7.6-2.2c5.9-1.3,12.1-2.1,17.6-5a2.2,2.2,0,0,0,2.6-1.2c7.6-3.4,11.4-9.9,13.6-17.4s-2.7-14.3-11.8-13.3l-9.9.9-3.9-1.2c-5-2.2-9.1-6.4-14.1-8.2-7.3-2.6-10.1-6.8-8.9-14.3.4-2.4.5-5.5-2.5-6.4s-4.4,2.1-5.3,4.2a17.7,17.7,0,0,1-9.4,9.8c-6.3,3.1-6.7,5.6-2.5,11.3,1.8,2.4,3.6,4.7,2.9,8.1-2.8,12.6-7.9,23.6-19.6,30.4A16.3,16.3,0,0,0,302.2,544.2Zm420-28.9h0c-6.5,2.4-12.2,5.8-15.4,12.2a46.6,46.6,0,0,1-10,12.9l-1.5,1c-6.3,2.7-7.5,4.5-6.7,10.9.3,2.3.8,4.5,1.2,6.8,1.4,8,1.9,15.7-3.6,22.7s-4.9,8.9-.1,15.9c3.2,5.6,7.9,10.5,7.3,17.8s1.6,8.4,8.9,6.1a19.1,19.1,0,0,0,7.1-2.3c2.9-1.7,4.1-4.4,2.2-7.2-5.9-8.8-1.8-15.3,4.4-21.5,3-3.1,6.1-6.1,8.3-9.9,3.9-6.8,2.6-10.5-4.8-13.5l-7.2-3.8c-4.9-5.9-5.1-10.1-.7-16.5l3-4.5,8.9-7.6c8.7-4.6,13.3-12.6,17.1-21.1.8-1.8,1.5-3.7-.2-5.5s-3.7-.5-5.4.3l-11.8,5.8ZM435.5,716.2a12.7,12.7,0,0,0,3.8-4.5c5.1-3.1,10.1-6.5,15.6-8.9l3.4-1.5,19.8-5.2a15.9,15.9,0,0,0,12.2-7.6c3.9-3.2,5.8-7.6,7.1-12.3s1.3-7.3-2-10.1a3.5,3.5,0,0,0-2.8-1.9c-3.7-1.9-7.5-.8-11.3-.7s-10.2-1.3-15.1-3.1h0l-1-.9a36.5,36.5,0,0,0-9.1-5.9c-7.7-3.6-8.2-4.4-7.2-13.1.3-2.8.1-5.8-2.7-6.8s-4.3,2.1-5.2,4.3c-2,4.7-5.4,7.7-9.9,10s-6.4,5.4-2,11c2.8,3.6,3.8,7.2,2.1,11.5a35.1,35.1,0,0,0-1.2,4.9l-1.5,3.1c-1.5,2.9-3,5.8-4.4,8.7l-5,5.8c-4.3,3.9-10.4,5-14.5,9.2-6.2,6.4-5.3,12.7,2.3,17a17.9,17.9,0,0,0,3.2,1.3l1.2.6h1.9l4.4.6C424.4,722.6,430.8,722.2,435.5,716.2ZM601.1,503.8l.9.9a18.3,18.3,0,0,1,5.8,10.7c.8,5.6,5.6,3.6,8.7,4.4a10.5,10.5,0,0,0,9.4-1.3,3.1,3.1,0,0,0,.5-2.4c-1-8.4,3.6-13.3,10.2-17.2,2.2-1.4,4.6-2.8,5.5-5.5,3-8.3-3.4-20-12-21.9-3.4-.8-7.2-1.1-10-3.1-8-5.6-15-3.1-22,1.8l-1,1h0c-2,0-3.4,1.3-4.9,2.2-4.6,3-9.4,4.9-14.9,4.2s-8.6-2.4-13.2-2.6-6.6,1.8-7.2,5.8c-.9,5.5,1.4,9.7,5.9,12.7s10.1,4.9,15.2,7.3a10.8,10.8,0,0,0,6.1,1.7c5.6.3,11.2.8,16.7,1.2ZM455.6,493.4a3.9,3.9,0,0,0,2.6-3.1,11.7,11.7,0,0,0-.3-7.4c-2.5-6.1-.6-11.3,2.4-16.6,6.3-11,5.1-16.6-5.9-23-7.8-4.6-14-10-16.5-19a18.5,18.5,0,0,0-2.7-4.7c-4.7-6.8-9-7.2-15-1.3-2.9,2.2-3.9,5.6-5.3,8.8-2,4.8-4.2,9.1-9.2,11.8-3.5,1.8-5.2,5.4-5.4,9.5a12.8,12.8,0,0,0,3.5,11.3,23,23,0,0,0,12.3,6.9c6.5,2.1,14,1.7,18.9,7.7,2.6,4.7,2.5,9.6,1.8,14.6s.9,7.6,4.6,8.2S451.8,497.9,455.6,493.4Zm-255.3,246c1.3-.1,1.7-1,2.1-2,2.2-2.3,2.1-5.1,1.9-8s-2.4-4.5-4.7-5.5c-14.7-6.7-15.2-7.9-9-22.5l3.7-3.8,11.4-8.8a42.2,42.2,0,0,0,13.5-19.4c.6-1.7,1-3.7-.7-5.1s-3.5-.3-5.1.5c-4.2,2.1-8.3,4.4-12.5,6.2-8.7,3.7-15.3,9.4-18.8,18.3l-2.9,3.9c-2,1.4-3.9,3.2-6.1,4.2-5.4,2.5-6.8,6.7-6,12.2s2.3,12.4,2.1,18.8l-1.8,5a39,39,0,0,1-1.9,3.5c-6,8.7-6,10.5.2,19.4a39.2,39.2,0,0,1,3.3,5c1.5,3,3,6,2.8,9.4-.5,8.8,1,9.9,9.6,7.3a53.1,53.1,0,0,0,5.6-2c3.7-1.5,4.8-4.6,2.8-7.7-5.2-8.2-1.8-14.4,3.7-20.6,2.5-2.6,5.8-4.6,6.9-8.3ZM529.5,517.8a43,43,0,0,0,2.8-5.2c.5-1.5,1-3.4-.5-4.7s-3.2-.8-4.7,0c-7.5,4.2-15.7,7.2-22.8,12.2-2.6,1.9-4.9,3.9-5.6,7.3l-3.4,4.9a29.1,29.1,0,0,1-10.7,9.6c-3.5,1.8-5.1,4.6-4.5,8.6.8,6.3,1.5,12.5,2.3,18.8l-.3,3.8a46.5,46.5,0,0,1-6.2,10.8c-2.6,3.1-2.3,6.8-.6,10.3a41.9,41.9,0,0,0,4.2,6.7c3.6,5,6.3,10.2,4.8,16.7a3.8,3.8,0,0,0,1.9,4.3c3.3,2,15.4-1.7,17.1-5.3a4.8,4.8,0,0,0-.4-4.8c-5.4-8.2-2-14.6,3.9-20.8,3.4-3.6,7.5-6.7,9-11.7,1.3-2.6,3.6-4.9,1.6-8s-6.2-4.3-9.6-5.9c-7.8-3.5-10-9.4-5.8-17a37.4,37.4,0,0,1,13-13.5c5.9-3.7,10-8.7,13.5-14.5A3.5,3.5,0,0,0,529.5,517.8ZM336.3,588.4h-.1a7.9,7.9,0,0,0-1.8-5.1c-1.4-4.3-3.3-8.3-7.1-11-1.8-1.5-3.7-2.2-6-1-4.8.9-7.2,4.5-8.9,8.6-2.7,6.3-5.3,12.6-11.4,16.4l-1.8,1.8c-5,5.9-4.5,13.9,1.4,19.3s11.7,6.4,18.6,7.1c4.8,1.5,9.9,2.5,12.3,7.7a27.7,27.7,0,0,1,.9,12.8c-.7,5,1.9,8.7,6.1,9.2,11.6,1.4,17.8-5.6,14.6-16.8-.9-2.2-.7-4.6-.8-7,1.6-3.1,3.1-6.3,4.8-9.3,4.5-8.6,3.1-14-4.8-19.7-5.2-3.7-11.2-6.5-15.1-12ZM538.3,693a3.6,3.6,0,0,0-1.8-2.8,26.9,26.9,0,0,0-12.3-9c-11.5-3.7-20.3,1.8-28.3,9.1a6.4,6.4,0,0,0-3.7,2.9c-8.7,9.5-19.6,13.9-32.4,14.9-5.5.4-11,2.4-14.7,7.2l-1.9,2c-6.1,8.4-5.6,15.9,2.4,23.9,5.8,5.8,12.4,10.9,18.7,16.3,3.6,2.9,4.4,8.8,10,9.8,1.5,0,3.1.5,4.4,0,8.6-3.2,16.9-1.7,24.7,2.3s14.8,0,19.1-5.8,7-12.9,5.4-20.6a22.5,22.5,0,0,1,1.3-14c1.4-.7,1.6-2.3,2.4-3.5l4.7-4.4a12.4,12.4,0,0,0,4.9-5C546.5,707.7,545.4,699,538.3,693Zm-323-64.6-2.9-.2c-9.2-3.5-17.4-9.2-26.9-11.8-12.3-3.3-24.1-3.1-33.9,6.9-6.1,6.1-6.5,19.5,5.2,23.6l8,2.7c6.8,2.5,13.1,5.8,16.7,12.7l1.9,4.1c3.7,6.7,7.5,7.6,13.6,3.3a23.3,23.3,0,0,0,6.7-7.3,41.2,41.2,0,0,1,16-15.8,13.8,13.8,0,0,0,2.6-2.3,3.1,3.1,0,0,0,2-1.9c3.6-2.7,4-6.5,2.8-10.2s-4.9-4-8.3-4Zm397.1-8.2a10.5,10.5,0,0,0-5.1-1.8c-12.4-5.3-24.5-6.1-35.8,2.7-4.7,3.6-7.5,8.5-6.8,14.7s5.2,9.8,11,11.6l2.4.8c10.5,3,19.3,8.1,23.1,19.2,1.2,1.8,2.4,3.6,4.8,4.1,6.1,1.9,9.2-2.1,12.3-6.1s5.6-8.3,9-12l6.1-4.3c3.4-2.1,6.8-4.3,9.3-7.5s3-5.9,1.7-9.3-4.2-3.4-7-3.9a52.3,52.3,0,0,0-6.9-.3l-7.4-2.6ZM252.6,860.6l3.7-2c4.1-1.5,8.2-3.8,12.5-4.6,18.1-3.3,20.1-23.6,11.8-34-1.7-3.9-4.9-6.4-8.4-8.6s-7.9-3.9-12.3-2.2c-8.4,3.2-17.2,3.7-26,4.1-5,.3-9.9,1.3-14.3,4-6.1,3.8-7,10.9-2.1,16.1,2.1,2.2,4.2,4.3,6.5,6.3,4.6,4.1,8.8,8.5,10,14.9l1.1,3.9c2,5,5.8,6.2,10.8,4.9A20.7,20.7,0,0,0,252.6,860.6ZM660.4,550.5h0c3.6.1,6.8-1.4,10-3a132.9,132.9,0,0,1,20-8.1,6.1,6.1,0,0,0,4-1.9c5.4-3.4,7.7-8.5,8-14.6.4-10.7-3.9-19-13-24.7a15.5,15.5,0,0,0-5.9-2.1l-.9-.2-2.4-.4c-6.7,1.4-13.2,4.1-20.3,4.2s-14.3.5-21,3.5-9.5,11.7-3.7,17.8a75.5,75.5,0,0,0,6.5,6.1c5.2,4.2,8.9,9.3,10.1,16.1.6,3.2,2.1,5.9,5.3,7.3C658.2,551.4,659.3,551.6,660.4,550.5ZM250.3,781.4a52.4,52.4,0,0,0,3-5.1c3.8-7.6,2.6-12.2-4-17.1-.7-1.6-2.4-2.1-3.8-3-4.1-3.2-9.2-5.3-12.3-9.8-.8-1.7-1.7-3.5-2.6-5.2a24.7,24.7,0,0,0-5.5-10.5c-3.5-4.4-7.6-4.6-12.1-1s-5,6.5-6.6,10.3-4.7,8.9-9.2,12c-8.1,5.7-7.8,16.8.2,22.9,3.9,3.1,8.4,4.6,13.2,5.5s9.5,1.9,13.7,4.3c1.2,2,2.5,3.9,3.8,5.8,0,4.1,0,8.3.1,12.4s3,8.2,8.5,7.5a51.2,51.2,0,0,0,5.4-1c6.2-1.3,9.2-6.1,7.5-12.1a28,28,0,0,1-1.1-11.8Zm271.1,1.8-4.7-1.9c-11.4-7.2-23.6-11.7-37.4-9.8a6.7,6.7,0,0,0-4,1.8c-4,.4-6.7,2.9-9.4,5.4-9.7,8.9-7.5,20.3,4.7,25,3.8,1.4,7.6,2.5,11.2,4.1,5.3,2.3,10,5.3,12.5,10.9,5.7,12.6,11.2,13.3,20.3,2.9a23.4,23.4,0,0,0,2.4-3.1c3.1-5.1,6.6-9.6,11.5-13,2.8-1.8,5.8-3.3,8.3-5.4,5-4.3,5-10.4.4-14.5C532,784.1,526.5,785.1,521.4,783.2ZM638.2,469.9a3.9,3.9,0,0,0,2.7,1.5c5.1,4.5,5.5,10.2,4.6,16.4s2.3,10.4,9.4,9.5a28.1,28.1,0,0,0,4.9-.9c6-1.7,8.7-6.1,7.3-12.1-.7-2.9-1.7-5.8-1.7-8.8l2.3-7.7c6.8-9.5,6.8-17.4-1.3-22.3s-17.3-12-21-22.7a.8.8,0,0,0-.2-.4c-4.8-10.7-12.8-10.3-17-3.2-3.9,4.4-5.1,10.1-7.8,15.1-.8.9-1.5,1.8-2.3,2.6-7.7,3.7-10.7,9.5-8.8,17.4.8,1.9,1.4,3.7,2.9,5.1a15.7,15.7,0,0,0,6.6,5.1C624.9,467.5,631.8,468,638.2,469.9ZM222.3,496.5c3.6-2.5,3.5-6.1,2.6-9.9l-1.4-5.4c-1.3-6.1-5.7-8.6-11.3-9.9-4-.8-8.2-1.4-11.7-4s-8.1-2.6-12.3-1-10.1,5.1-14.9,8.1a19.6,19.6,0,0,1-12,3.2c-4.9-.2-9.3-2.5-14.2-2.5s-8.2,2.7-7.3,8.4c1.2,8.4,7.4,11.6,14.4,13.9a15.2,15.2,0,0,0,5.9,3.1c4.3,3.3,9.3,2,14,2.1,10.2.4,13.2,2.6,15.8,12.4.5,2,.7,4.2,3.3,4.5a82.2,82.2,0,0,0,9.9.6c4.3-.1,6.9-1.7,6.2-6.8s2.1-8.5,5.7-11.6l3.8-3.2A6.6,6.6,0,0,0,222.3,496.5Zm52.8-.9c5.4,3,9.4,6.8,11.9,12.8s6.5,8,12.3,6a28.3,28.3,0,0,0,10.2-10.7c3-5.4,7.5-9.2,12.7-12.3a24.7,24.7,0,0,0,7-5.5c2.3-3,3.7-6.3,2.2-10.2s-4.7-3.8-7.9-4-9.2-.4-13.4-2.8a105,105,0,0,0-16.8-7.5,6.6,6.6,0,0,0-4.5-1.1c-9.6-4.7-23.7-2.4-30.5,5-1.5.4-2.2,1.6-3.1,2.6-7,8.7-5,17.5,5.2,22C265.2,492.1,270.2,493.7,275.1,495.6Zm286,292.6c-5.2,3.2-6.6,10.1-1.9,14.7a42.5,42.5,0,0,0,26.1,12.4h9.9c4.9,1.1,8.9,3.3,11.1,7.9.5,3.5-.2,8.3,4,9.2s10.9,2.8,16-1.1c-1-8.8,2.5-15.1,10.2-19.6s7.5-7.5,4.8-15.5c-1-3.6-1.5-7.6-5.9-9.1-.6-.6-1.1-1.4-1.8-1.6-6.5-2-13.2-3.2-19.1-7-2-1.2-4.9-.6-7.3.1a39.2,39.2,0,0,0-9.9,4.7l-6.1,3.8-6.9,3.3c-6.2.9-12-1.8-18.1-1.9l-.9-.3C563.9,787.1,562.6,787.3,561.1,788.2Zm37-108.7c0-2.1.7-4.2-.7-6.2.3-2-.5-3.9-1.2-5.7-4.8-12.2-17-18.2-27.1-13.4l-2.8.9c-7.9.8-15.8,1.4-23.6,2.3a20.4,20.4,0,0,0-11.1,4.1c-5.1,4-5.8,9.7-1.8,14.7a29.4,29.4,0,0,0,8.5,7.6l1.8,1.6c3.3,4.3,6.2,8.7,7.5,14.3,1.7,7.5,6.2,9.4,13.5,6.5s16.2-8.3,25.3-10.2a5.7,5.7,0,0,0,4.1-2.5c1.2-1.1,2.4-2.2,3.7-3.2A16.5,16.5,0,0,0,598.1,679.5ZM438.3,501.2h-.2c-5.8.8-11.3,2-13.9,8-2.3,3.9-1.5,7.2,1.2,10.5s5.2,5.1,7.9,7.5c4.2,3.8,7.9,7.8,9.3,13.7,2.2,10.2,6.6,12.3,16.1,8,2-.9,4.5-1.3,5.9-3.5a3.3,3.3,0,0,0,2.8-.9c4-1.5,8-3,12.1-4.1,6.2-1.7,11.5-4.9,12.8-12.1,1.3-3.6,3-7.2,1.1-11.1-1.6-9.2-6.2-16.2-15-20-7.3-4.4-13.5.8-20.2,2l-16.9,1.3A3,3,0,0,0,438.3,501.2Zm88,436.1c8.8,1.7,15.5,5.4,15.3,15.8a53.2,53.2,0,0,0-.4,6.9c.1,5.4,3.7,7.9,9.2,6.6a15.6,15.6,0,0,0,6.8-1.3c3.9-1.9,7.1-5.1,5.7-9.4-2.9-8.9-.8-16.4,3.7-24.1s2.1-12.9-4.5-16.8c-9.2-5.4-17.2-11.5-20.7-22.1a10.2,10.2,0,0,0-2.8-4.8c-4.3-5.6-8.1-6-13.2-1.5a20.9,20.9,0,0,0-5.5,8.8c-2.1,5.5-5,10.4-10.1,13.6a10.4,10.4,0,0,0-3.5,4.3,10.8,10.8,0,0,0-1.1,10.8c2.5,6.4,7.4,9.9,13.9,11.5A18.1,18.1,0,0,0,526.3,937.3Zm-160.1-5.5a12.5,12.5,0,0,0-4.4,3.1c-6.9,6.3-8.2,12.9-3.6,19.6a9.4,9.4,0,0,0,4.1,3.8c4.1,2.3,8.7,3.3,13,5.1,6.1,2.4,11.8,5.5,14.7,11.9,1,2.1,1.7,4.3,3.2,6.1,4.9,5.4,7.5,5.4,13.3.3a18.6,18.6,0,0,0,4.9-5.2l1.9-2.9c3.8-6,9-10.4,15.1-14,3.2-1.9,6-4.3,7.3-7.9,2-5.3-.1-10.1-5.2-10.1a50.3,50.3,0,0,1-19.2-4.3l-3-1.9c-3.6-1.7-7.1-3.7-10.9-4.9-8.5-2.8-17.2-4.9-26.1-1.1Zm-162.9,5.6c-10.1-5.7-20.4-10.6-32.3-9.8-8.8.5-16.5,3.5-21.1,11.8-4.3,6-3.9,11.5,1.3,17,1.9,2.3,4.6,3.3,7.3,4.1,11.4,3.2,21.1,8.2,25.8,20.3,2.2,5.6,7,5.8,12.1,2.3a29.4,29.4,0,0,0,8.9-10c2.9-5.3,7.2-8.9,12.2-12.1a41.7,41.7,0,0,0,6.7-5,9.8,9.8,0,0,0,2.8-11c-1.4-3.7-5.1-3.8-8.5-3.7a28.3,28.3,0,0,1-11.2-1.8ZM322.4,372.2c-9.5-7.1-17.5-7.1-29.1.1l-5,4a88.5,88.5,0,0,0-14.4,12.9l-2.8.9a66.7,66.7,0,0,1-12.4,3.3c-6.7,1.2-13.5,2.2-19.4,6-8.2,5.3-11.1,15.5-6.4,23.4,2.8,4.7,6.4,8.9,11.4,11.5s7.3,7.4,11.7,10.3a47.4,47.4,0,0,1,4.3,6c2.1,3.9,5.4,5,9.2,3.8a33.7,33.7,0,0,1,23.6,1.3c9.5,5.8,18.2.5,22.1-7.4a21.7,21.7,0,0,0,4.1-16.8,38.4,38.4,0,0,1,0-12.2l1.3-3.6c2.6-2.6,4.9-5.5,7.8-7.7,9.2-6.9,9.8-21.7,1-28.9A41.6,41.6,0,0,0,322.4,372.2ZM151.2,550.6a59,59,0,0,0-10.1,2.3c-7.9,2.8-13.3,7.7-14.6,16.3-.3,2.4-.5,4.9.7,7.1,2.5,7.4,8.7,11.6,14.1,16.3s11.7,9.3,15.7,15.9a5.9,5.9,0,0,0,7.4,2.7c9.6-3.5,18.6-1.7,27.5,2.3,5.8,2.6,10.8.7,15.1-3.3a24.4,24.4,0,0,0,7.4-13.7c2.3-4.1.1-8.1-.2-12.2-.4-7.8,2.6-14,8.7-19,2.6-2.1,5.4-4.3,6.6-7.8,3-6.8,2.8-13.3-2.1-19.2s-10.5-13.4-20-14.1c-1.7-1.6-3.8-.9-5.7-.7-6.8,1-12.3,4.5-17.4,8.9-1.5,1.2-3.1,2.3-4.6,3.7-6.5,6-12.7,12.5-22.4,13.4Zm419-79c3.2,1.7,6.2,3.8,10.1,2.8s5.5-3.6,6-7.3c1.6-10.2-3.3-17.5-10-24.3s-6.7-10.9-1.4-18.4c3.2-4.5,5.8-9.3,6.6-14.9a3.9,3.9,0,0,0,.1-4.4,1.5,1.5,0,0,0-.2-.9l-.3-3.9c-2.2-6.4-5.2-7.9-11.7-6.1-10.9,3-19.8,10-29.4,15.4-3.4,2-5,5.9-5.5,9.8s0,7.2,0,10.9v8.1c-1.3,9-5.9,15.6-14.4,19.4-1.7.7-3.5,1.6-3.5,3.7s1.5,3.6,3.4,4.5,2.5,1.3,3.7,1.2c5.4-.4,10.6.9,15.7,2.3l2.5.9c3.9,4,8.1,2.3,11.7.1s9.3-3,13.9.1A12.5,12.5,0,0,0,570.2,471.6ZM222.4,719.5a5.1,5.1,0,0,0,3.9-3c9.7-10.4,22.2-15,35.6-18.3,5.4-1.3,11.2-1.6,15.6-5.6l2.8-2.5a23.4,23.4,0,0,0,8.3-14.7,5.8,5.8,0,0,0-.2-6.1c.1-3.1-2-4.3-4.4-5.3s-6.3-1.1-9.4-.6a24.8,24.8,0,0,1-16.2-3.2l-3.9-2.1a30.9,30.9,0,0,0-8.9-5.3c-4.3-1.5-6.4-4.6-5.6-9.3a16,16,0,0,0,.3-4.4c-.1-2.4-.4-5-3.1-5.6s-3.9,1.9-4.6,3.8a18.9,18.9,0,0,1-10.3,10.8c-5.8,2.7-6.1,5.4-2.2,10.6,2,2.7,3.8,5.4,2.9,9.1-3.2,13.1-8.2,24.9-21.8,30.6a27.8,27.8,0,0,0-4.1,2.9,6.4,6.4,0,0,0-2.9,3.7c-3.2,4.4-2.9,8.3.7,11.9C200.2,722.2,216,724.4,222.4,719.5Zm53.8-19.1v-.2c-6.7,4.7-14.6,5.6-22.4,7.2-9.9,1.9-19.2,4.7-22.5,15.9-2.1,5.3-.8,10,2.8,14.1,4.2,6.4,10.2,10.7,16.2,15.1l3,2.8c2.2,2.5,4.9,4.7,6.5,7.5,2.4,4.5,6.1,6.1,10.3,4.5,9.3-3.5,17.7-.8,26.1,2.7,5.4,2.4,9.9,1.1,14.1-2.6a6.1,6.1,0,0,0,3.1-3.6c5.4-6,7.1-13.1,5.7-20.9s.7-14.1,6.4-19.4a59.4,59.4,0,0,0,5.7-5.5c4.7-5.3,6.1-15,2.5-20.6a45.9,45.9,0,0,0-13.5-13.9c-6.9-4.4-14.1-4.6-21.4-1.2s-13.1,8.3-18.6,14a6.3,6.3,0,0,0-2.9,3.1ZM579.4,507.1l-5.2-1.7c-4.4-2.6-8.6-5.6-13.2-7.9-8.2-4.2-8.4-4.3-7.7-13.2.2-2.7.3-5.9-2.7-6.9s-4.7,2.3-5.6,4.6c-1.8,4.7-5.3,7.5-9.6,9.5-6,4-6.5,6.1-2,11.3a9.4,9.4,0,0,1,2.1,10.4,45.2,45.2,0,0,0-1.1,5.3c-4.3,11-10.8,20.1-22.3,24.8-1.8.7-3.4,2.6-4.7,4.3-4,4.9-3,10.5,2.3,14.1,10.4,7,25.4,4.7,32.8-5.1l8.8-7,11-4.3a10.8,10.8,0,0,0,5-2c4.9-.2,9.3-2.2,14.1-3.1,10.9-2.2,16.6-9.7,20-19.5s-1.9-15.3-11.6-14.1A45.1,45.1,0,0,1,579.4,507.1Zm-3.2,103.3,1.1.6h1.9c6.1-.1,12-2.5,18.2-1.9l8.3,3.2c10.3,4.1,14.7,3,21.8-5.8a20.7,20.7,0,0,0,3.8-9.2,15,15,0,0,0,1.1-8.6,28.8,28.8,0,0,1,2.2-18.3l8.7-8c3.3-3.1,4.6-7,5.3-11.4,2.1-12.2-17-28.8-27.2-27.7-1.5.2-3,0-4.3.9a10.4,10.4,0,0,0-5.8,2.2c-7.5,2.9-13.3,8.2-18.7,13.8s-11,7.9-17.8,9.1c-3.5.7-6.9,1.2-10.3,2.1-5.7,1.6-11.8,2.4-15.6,7.9a10.7,10.7,0,0,0-3.8,5.9c-3.9,7.9-.4,14.1,5,19.6C558.6,593.5,569.2,600.2,576.2,610.4ZM506.3,871.3c5.4,9.1,29,10,34.6.7,2.8-4.7,7.9-7.5,12.8-9.9l9.8-4.7a8,8,0,0,0,4.8-1.1l14.5-3.5c11-2.8,16.3-11,19.1-21,1.9-6.7-1.2-10.7-8.2-11.9-2.9-.5-5.6.1-8.4.5l-8.2-.9c-5.5-2.3-10.1-6.6-15.6-8.7s-10.1-6.5-8.3-14c.7-2.6,0-5.9-2.9-6.7s-4.1,2.1-4.9,4.2c-1.9,4.8-5.3,7.8-9.7,10.2s-6.2,5.8-2.4,10.7,3.4,8,2,12.7-3.7,8.9-5.2,13.4l-7.8,9.1-6,3.9C507.1,857.5,503.4,863.9,506.3,871.3Zm-45.5-10.5,4.5-2.4c5.2-2,10.6-3.8,15.9-5.6,13.8-4.5,17.1-23.7,6.3-35.8-4.9-5.6-11-10.2-18.7-7.8s-16.9,3.5-25.5,4.2a29.8,29.8,0,0,0-13.1,2.9c-8.5,4.6-9.7,11.6-3,18.5a53.4,53.4,0,0,0,4.4,3.9c5.7,4.7,10,9.9,11.6,17.5s5.7,9.1,12.6,6.9C457.6,862.5,459.1,861.5,460.8,860.8Zm142.3,62.8,1.1.8c12.4,6.6,18.1,2.2,23.6-5.4a25.7,25.7,0,0,0,4.3-20c-.9-5.6-.2-10.9,3.2-15.7l2.1-2.5c6.4-5.1,11.9-10.4,11.2-19.8-.5-6.9-4.6-11.3-8.9-15.6s-8.6-8.5-15.4-8.2c-4.4-1.6-8.3-.5-12,2-6.8,1.7-11.9,6.2-16.3,11-7.3,8-16.2,11.9-26.6,13.3l-3.3.6c-9.2,1.6-17.5,4.6-21.3,14.2-.6,3.1-2.2,6-.8,9.2,1.8,7.4,7.4,11.9,12.8,16.5s12.9,10.3,17.5,17.3a3,3,0,0,0,2.8,2.1c2.1,1.7,4.4,1,6.6.4,4.8-1.2,9.6-2.1,14.5-1.6,1.3,1.6,3.2,1.1,4.8,1.4ZM388.4,849.5c-2.9,1.4-4.8,4.1-7.1,6.2s-7.2,4.7-11.4,5.7c-6,1.4-12,2.4-18,3.9-8.8,2.3-15,7.4-16.8,16.9-1.1,3.8.5,7,2,10.3a50.9,50.9,0,0,0,9.7,10.5c7,5.9,14.6,11.3,19.5,19.4,2.5,1.9,5.1,2.7,8.1,1.3,8.4-2.4,16.3-1.3,24.3,2.1s14.4,1.7,19.8-5.9c2.6-3.7,4.6-7.7,5-12.3s-.9-8.9-.4-13.4c.6-2.9,1.3-5.8,1.9-8.8a15.1,15.1,0,0,0,1.1-2.2c2.9-2.5,5.8-4.9,8.5-7.6,5.7-5.6,7.5-13.6,3.8-20.6s-9.7-13.8-18.1-16.9l-5.1-1.6C403.9,835.9,395.9,842.2,388.4,849.5Zm-28.8,76.2a12.3,12.3,0,0,0-3.5-8.5,34,34,0,0,0-8.5-6.1c-6.1-3.3-10.7-7.8-12.9-14.6a26.8,26.8,0,0,0-6.4-9.9c-3.2-3.3-6.3-3.8-10.1-1.2s-5.9,7.5-7.8,11.9-3.6,7.4-7.2,10c-10.7,7.6-9.9,19.7,1.6,26.1,5.1,2.8,10.7,3.4,16.2,4.9,9.5,2.5,12.8,7.4,11.8,17.2a32.9,32.9,0,0,0-.5,4.4c.1,3.1,1.4,5.9,4.4,6.7a16.4,16.4,0,0,0,13.7-2.6c4.1-2.9,5-7,3.3-11.5s-1-11.4,2.3-16.6C357.9,932.8,359.7,929.6,359.6,925.7Z" transform="translate(-118.3 -361.3)" fill="#F3F2F1" style="opacity: 0.6;"/></svg>