<svg width="58" height="58" viewBox="0 0 58 58" fill="none" xmlns="http://www.w3.org/2000/svg">
<circle cx="29" cy="29" r="28.5" stroke="white"/>
<path fill-rule="evenodd" clip-rule="evenodd" d="M43.1623 30.5477V40.4651H37.3798V31.213C37.3798 28.8883 36.5443 27.3029 34.4505 27.3029C32.8518 27.3029 31.9027 28.3709 31.4839 29.4058C31.3313 29.7754 31.2922 30.287 31.2922 30.8064V40.4631H25.5078C25.5078 40.4631 25.5861 24.7934 25.5078 23.1729H31.2922V25.6221C31.2804 25.6416 31.2648 25.661 31.255 25.6785H31.2922V25.6221C32.0612 24.4471 33.431 22.7664 36.5052 22.7664C40.3092 22.7664 43.1623 25.2369 43.1623 30.5477V30.5477ZM19.4574 14.8372C17.479 14.8372 16.1855 16.1269 16.1855 17.8233C16.1855 19.4846 17.4418 20.8132 19.383 20.8132H19.4202C21.4377 20.8132 22.69 19.4846 22.69 17.8233C22.6528 16.1269 21.4377 14.8372 19.4574 14.8372V14.8372ZM16.5273 40.4651H22.3098V23.173H16.5273V40.4651Z" fill="white"/>
</svg>
