<?xml version="1.0" encoding="iso-8859-1"?>
<!-- Uploaded to: SVG Repo, www.svgrepo.com, Generator: SVG Repo Mixer Tools -->
<!DOCTYPE svg PUBLIC "-//W3C//DTD SVG 1.1//EN" "http://www.w3.org/Graphics/SVG/1.1/DTD/svg11.dtd">
<svg fill="#FFF" height="800px" width="800px" version="1.1" id="Capa_1" xmlns="http://www.w3.org/2000/svg" xmlns:xlink="http://www.w3.org/1999/xlink"
	 viewBox="0 0 478.976 478.976" xml:space="preserve">
<g>
	<path d="M44.338,314.735h280.738c1.424,0,2.781-0.607,3.729-1.67s1.399-2.479,1.239-3.894L310.68,138.418
		c-0.287-2.527-2.425-4.437-4.968-4.437H24.974c-1.424,0-2.781,0.607-3.729,1.67s-1.399,2.479-1.239,3.894l19.364,170.754
		C39.656,312.825,41.794,314.735,44.338,314.735z M301.247,143.981l18.229,160.754H48.802L30.573,143.981H301.247z"/>
	<path d="M473.976,324.188H351.324l-21.753-191.822c-1.153-10.169-9.741-17.838-19.975-17.838H20.103
		c-5.719,0-11.185,2.447-14.994,6.713c-3.81,4.266-5.625,9.972-4.981,15.656l21.838,192.575v18.591
		c0,9.035,7.351,16.385,16.385,16.385H462.59c9.035,0,16.385-7.35,16.385-16.385v-18.875
		C478.976,326.426,476.737,324.188,473.976,324.188z M348.417,334.188c-1.359,1.489-3.309,2.43-5.479,2.43H285.12
		c-2.17,0-4.119-0.941-5.479-2.43h67.218H348.417z M12.567,127.901c1.943-2.176,4.619-3.374,7.536-3.374h289.494
		c5.144,0,9.459,3.854,10.039,8.965l21.625,190.695H31.431L10.064,135.77C9.735,132.871,10.625,130.077,12.567,127.901z
		 M38.351,354.448c-3.521,0-6.385-2.865-6.385-6.385v-13.875h117.116v12.956c0,4.028-3.277,7.304-7.304,7.304H38.351z
		 M468.976,348.063c0,3.521-2.864,6.385-6.385,6.385H157.443c1.041-2.223,1.639-4.692,1.639-7.304v-12.956H268.43
		c2.155,7.18,8.817,12.43,16.689,12.43h57.818c7.872,0,14.535-5.25,16.689-12.43h109.348V348.063z"/>
	<path d="M49.551,339.318h-9c-2.761,0-5,2.239-5,5s2.239,5,5,5h9c2.761,0,5-2.239,5-5S52.313,339.318,49.551,339.318z"/>
	<path d="M72.051,339.318h-8.5c-2.761,0-5,2.239-5,5s2.239,5,5,5h8.5c2.761,0,5-2.239,5-5S74.813,339.318,72.051,339.318z"/>
	<path d="M128.55,339.317c-1.31,0-2.6,0.54-3.53,1.46c-0.93,0.94-1.47,2.22-1.47,3.54c0,1.32,0.54,2.61,1.47,3.54
		c0.93,0.93,2.22,1.46,3.53,1.46c1.32,0,2.61-0.53,3.54-1.46c0.93-0.93,1.46-2.22,1.46-3.54c0-1.32-0.53-2.6-1.46-3.54
		C131.16,339.857,129.87,339.317,128.55,339.317z"/>
	<path d="M121.765,165.723h97.454c2.761,0,5-2.239,5-5s-2.239-5-5-5h-97.454c-2.761,0-5,2.239-5,5S119.004,165.723,121.765,165.723z
		"/>
	<path d="M73.672,189.133h198.96c2.761,0,5-2.239,5-5s-2.239-5-5-5H73.672c-2.761,0-5,2.239-5,5S70.91,189.133,73.672,189.133z"/>
	<path d="M76.321,202.543c-2.761,0-5,2.239-5,5s2.239,5,5,5h198.96c2.761,0,5-2.239,5-5s-2.239-5-5-5H76.321z"/>
	<path d="M78.982,225.943c-2.761,0-5,2.239-5,5s2.239,5,5,5h198.96c2.761,0,5-2.239,5-5s-2.239-5-5-5H78.982z"/>
	<path d="M81.631,249.353c-2.761,0-5,2.239-5,5s2.239,5,5,5h198.96c2.761,0,5-2.239,5-5s-2.239-5-5-5H81.631z"/>
	<path d="M84.292,272.763c-2.761,0-5,2.239-5,5s2.239,5,5,5h198.96c2.761,0,5-2.239,5-5s-2.239-5-5-5H84.292z"/>
</g>
</svg>