<?xml version="1.0" encoding="iso-8859-1"?>
<!-- Uploaded to: SVG Repo, www.svgrepo.com, Generator: SVG Repo Mixer Tools -->
<!DOCTYPE svg PUBLIC "-//W3C//DTD SVG 1.1//EN" "http://www.w3.org/Graphics/SVG/1.1/DTD/svg11.dtd">
<svg fill="#FFF" height="800px" width="800px" version="1.1" id="Capa_1" xmlns="http://www.w3.org/2000/svg" xmlns:xlink="http://www.w3.org/1999/xlink"
	 viewBox="0 0 383.991 383.991" xml:space="preserve">
<g>
	<g>
		<g>
			<g>
				<path d="M156.498,306.469c-9.166,0-16.857-3.767-21.104-10.334c-4.059-6.28-4.488-14.487-1.174-22.517
					c2.973-7.2,8.686-13.8,16.088-18.584c7.033-4.547,15.023-7.052,22.496-7.052c9.166,0,16.857,3.767,21.104,10.334
					c8.041,12.444,1.49,30.497-14.914,41.101C171.959,303.965,163.971,306.469,156.498,306.469z M172.805,262.983
					c-4.619,0-9.717,1.651-14.354,4.649c-4.795,3.098-8.572,7.366-10.365,11.71c-0.826,2.005-1.939,5.794-0.094,8.649
					c1.428,2.21,4.529,3.478,8.506,3.478c4.617,0,9.715-1.651,14.354-4.649c9.816-6.345,13.391-15.823,10.457-20.361
					C179.883,264.251,176.781,262.983,172.805,262.983z"/>
			</g>
			<g>
				<path d="M52.485,142.775c-2.66,0-5.283-0.467-7.795-1.389c-11.719-4.298-17.758-17.33-13.459-29.051
					c3.258-8.881,11.799-14.848,21.256-14.848c2.66,0,5.281,0.467,7.795,1.389c11.719,4.298,17.758,17.329,13.461,29.049
					C70.485,136.807,61.942,142.775,52.485,142.775z M52.486,112.488c-3.191,0-6.074,2.014-7.174,5.012
					c-1.449,3.956,0.588,8.354,4.543,9.805c0.852,0.313,1.736,0.471,2.629,0.471c3.191,0,6.074-2.015,7.174-5.014
					c1.451-3.954-0.588-8.352-4.543-9.803C54.264,112.646,53.379,112.488,52.486,112.488z"/>
			</g>
			<g>
				<path d="M102.016,118.814c-2.66,0-5.281-0.467-7.793-1.389c-5.678-2.082-10.205-6.25-12.746-11.736
					c-2.543-5.487-2.797-11.636-0.715-17.313c3.258-8.881,11.801-14.848,21.258-14.848c2.658,0,5.281,0.467,7.793,1.389
					c11.721,4.299,17.758,17.33,13.459,29.049C120.016,112.847,111.473,118.814,102.016,118.814z M102.02,88.529
					c-3.191,0-6.076,2.015-7.176,5.013c-0.701,1.915-0.617,3.989,0.242,5.841c0.858,1.852,2.385,3.258,4.301,3.961
					c0.854,0.313,1.736,0.471,2.629,0.471c3.191,0,6.074-2.014,7.174-5.012c1.449-3.955-0.588-8.352-4.541-9.803
					C103.795,88.687,102.91,88.529,102.02,88.529z"/>
			</g>
			<g>
				<path d="M157.576,122.012c-2.66,0-5.281-0.467-7.795-1.389c-5.676-2.082-10.203-6.25-12.746-11.737
					c-2.541-5.486-2.795-11.635-0.711-17.313c3.256-8.88,11.797-14.847,21.254-14.847c2.66,0,5.281,0.467,7.793,1.389
					c5.678,2.082,10.205,6.25,12.748,11.737c2.541,5.486,2.795,11.635,0.713,17.312
					C175.574,116.046,167.033,122.012,157.576,122.012z M157.578,91.727c-3.191,0-6.072,2.014-7.172,5.012
					c-0.703,1.916-0.617,3.991,0.24,5.842c0.857,1.851,2.385,3.258,4.301,3.961c0.852,0.313,1.736,0.471,2.629,0.471
					c3.191,0,6.072-2.014,7.172-5.012c0.703-1.916,0.617-3.99-0.24-5.842c-0.857-1.852-2.385-3.258-4.301-3.961
					C159.354,91.885,158.469,91.727,157.578,91.727z"/>
			</g>
			<g>
				<path d="M207.104,144.682c-2.658,0-5.279-0.467-7.789-1.387c-11.721-4.302-17.758-17.334-13.461-29.052
					c3.258-8.881,11.799-14.848,21.256-14.848c2.658,0,5.281,0.467,7.793,1.389c11.721,4.298,17.758,17.329,13.461,29.049
					C225.106,138.715,216.563,144.682,207.104,144.682z M207.11,114.396c-3.191,0-6.074,2.014-7.174,5.012
					c-1.449,3.955,0.588,8.354,4.543,9.805c0.85,0.312,1.734,0.47,2.625,0.47c3.193,0,6.076-2.015,7.178-5.014
					c1.449-3.954-0.588-8.351-4.543-9.802C208.885,114.554,208,114.396,207.11,114.396z"/>
			</g>
			<g>
				<path d="M245.264,185.451c-2.66,0-5.283-0.467-7.795-1.388c-5.678-2.083-10.205-6.251-12.746-11.737
					c-2.543-5.487-2.797-11.636-0.713-17.314c3.256-8.881,11.799-14.848,21.256-14.848c2.658,0,5.279,0.466,7.791,1.387
					c11.723,4.302,17.76,17.334,13.463,29.052C263.262,179.484,254.719,185.451,245.264,185.451z M245.266,155.165
					c-3.191,0-6.074,2.015-7.174,5.013c-0.703,1.916-0.617,3.99,0.24,5.842c0.857,1.852,2.385,3.258,4.301,3.961
					c0.854,0.313,1.738,0.471,2.631,0.471c3.189,0,6.072-2.015,7.174-5.013c1.449-3.954-0.59-8.353-4.545-9.804
					C247.043,155.323,246.158,155.165,245.266,155.165z"/>
			</g>
		</g>
		<path d="M379.555,40.674c-0.002-0.006-0.004-0.012-0.006-0.018v0.001c-0.172-0.74-0.459-1.467-0.869-2.154
			c-2.129-3.554-6.734-4.711-10.289-2.581c-3.414,2.045-81.428,49.56-65.078,106.212c-2.303,2.612-5.746,6.697-9.877,12.139
			c-12.055-35.523-39.877-65.37-79.85-85.126c-30.752-15.198-62.957-23.37-93.135-23.632c-27.957-0.281-53.754,6.138-74.625,18.453
			C18.08,80.34,1.418,106.115,0.113,134.685c-2.799,61.28,46.803,77.763,79.627,88.669c6.412,2.131,12.469,4.144,17.309,6.206
			c6.107,2.602,9.676,5.912,10.605,9.84c1.596,6.741-3.951,15.318-6.408,18.298c-15.777,15.847-15.512,39.639,0.699,57.988
			c12.84,14.536,33.117,22.8,55.82,22.8c0.508,0,1.021-0.005,1.533-0.013c24.582-0.401,51.061-10.297,77.137-28.72
			c-0.414,10.48-0.199,21.348,0.822,32.563c0.25,2.747,1.986,5.135,4.523,6.218c0.947,0.404,1.949,0.602,2.943,0.602
			c1.672,0,3.326-0.558,4.678-1.636c49.172-39.201,73.516-88.893,85.279-123.675c9.99-29.543,12.842-53.26,13.629-62.703
			C400.242,133.595,380.447,44.554,379.555,40.674z M238.016,289.782c-0.486,0.396-0.975,0.789-1.461,1.173
			c-26.471,20.88-53.27,32.125-77.5,32.52c-18.938,0.299-35.648-6.148-45.869-17.72c-11.109-12.577-11.557-27.353-1.139-37.645
			c0.145-0.142,0.285-0.292,0.416-0.445c1.385-1.609,13.412-16.164,9.809-31.636c-2.064-8.861-8.572-15.682-19.344-20.27
			c-5.406-2.304-11.746-4.41-18.457-6.641c-31.924-10.607-71.654-23.81-69.373-73.751c1.086-23.761,14.705-44.53,38.35-58.481
			c40.514-23.904,97.894-21.771,153.492,5.707c40.404,19.97,67.064,50.93,75.404,87.419c-4.742,7.246-9.787,15.664-14.748,25.17
			C255.635,218.109,242.66,250.663,238.016,289.782z M320.305,219.513c-10.19,29.947-30.281,71.623-68.984,106.68
			c-1.451-52.199,14.754-95.536,29.334-123.608c3.457-6.657,6.977-12.764,10.398-18.288l35.27,15.058
			C324.699,205.646,322.721,212.412,320.305,219.513z M329.723,184.497l-30.293-12.933c6.014-8.605,11.176-14.914,14.355-18.597
			l19.439,8.301C332.766,166.113,331.778,174.203,329.723,184.497z M340.727,148.162l-22.881-9.77
			c-10.521-35.644,30.074-69.751,49.02-83.378C370.201,78.124,373.813,131.079,340.727,148.162z"/>
	</g>
</g>
</svg>